M48
; DRILL file {KiCad (5.1.6)-1} date 08/07/20 11:21:00
; FORMAT={3:3/ absolute / metric / suppress leading zeros}
; #@! TF.CreationDate,2020-08-07T11:21:00-04:00
; #@! TF.GenerationSoftware,Kicad,Pcbnew,(5.1.6)-1
FMAT,2
METRIC,TZ
T1C0.400
%
G90
G05
T1
X146600Y-40600
X146600Y-48200
X146600Y-55700
X146600Y-63200
X146600Y-70600
X146600Y-78000
X146600Y-86600
X146700Y-33700
X146900Y-32300
X148200Y-32400
X148200Y-39800
X148200Y-47200
X148200Y-54700
X148200Y-62200
X148200Y-69600
X148200Y-77100
X148200Y-84600
X151400Y-31400
X151400Y-35800
X151400Y-38300
X151400Y-43200
X151400Y-45700
X151400Y-50600
X151400Y-53200
X151400Y-58100
X151400Y-60700
X151400Y-65500
X151400Y-68100
X151400Y-73000
X151400Y-75600
X151400Y-80500
X151400Y-83000
X151400Y-87900
X154600Y-34300
X154600Y-41800
X154600Y-49200
X154600Y-56600
X154600Y-64100
X154600Y-71600
X154600Y-79000
X154600Y-86400
X155900Y-32300
X156200Y-40700
X156200Y-48300
X156200Y-55800
X156200Y-63300
X156200Y-70700
X156200Y-78100
X156200Y-86600
X156300Y-33800
T0
M30
