G04 #@! TF.GenerationSoftware,KiCad,Pcbnew,(5.1.6)-1*
G04 #@! TF.CreationDate,2020-08-07T11:21:43-04:00*
G04 #@! TF.ProjectId,daftPunk,64616674-5075-46e6-9b2e-6b696361645f,rev?*
G04 #@! TF.SameCoordinates,Original*
G04 #@! TF.FileFunction,Copper,L2,Bot*
G04 #@! TF.FilePolarity,Positive*
%FSLAX46Y46*%
G04 Gerber Fmt 4.6, Leading zero omitted, Abs format (unit mm)*
G04 Created by KiCad (PCBNEW (5.1.6)-1) date 2020-08-07 11:21:43*
%MOMM*%
%LPD*%
G01*
G04 APERTURE LIST*
G04 #@! TA.AperFunction,SMDPad,CuDef*
%ADD10R,1.500000X1.500000*%
G04 #@! TD*
G04 #@! TA.AperFunction,ViaPad*
%ADD11C,0.800000*%
G04 #@! TD*
G04 #@! TA.AperFunction,Conductor*
%ADD12C,0.250000*%
G04 #@! TD*
G04 #@! TA.AperFunction,Conductor*
%ADD13C,0.400000*%
G04 #@! TD*
G04 #@! TA.AperFunction,Conductor*
%ADD14C,0.254000*%
G04 #@! TD*
G04 APERTURE END LIST*
D10*
X146600000Y-85200000D03*
X146600000Y-88000000D03*
X146600000Y-82700000D03*
X156300000Y-85200000D03*
X156300000Y-88000000D03*
X156300000Y-82700000D03*
D11*
X146600000Y-86600000D03*
X146600000Y-70600000D03*
X156200000Y-70700000D03*
X146600000Y-63200000D03*
X156200000Y-63300000D03*
X146600000Y-55700000D03*
X156200000Y-55800000D03*
X146600000Y-48200000D03*
X156200000Y-48300000D03*
X146600000Y-40600000D03*
X156200000Y-40700000D03*
X146700000Y-33700000D03*
X156300000Y-33800000D03*
X151400000Y-87900000D03*
X151400000Y-83000000D03*
X151400000Y-80500000D03*
X151400000Y-75600000D03*
X151400000Y-73000000D03*
X151400000Y-68100000D03*
X151400000Y-65500000D03*
X151400000Y-60700000D03*
X151400000Y-58100000D03*
X151400000Y-53200000D03*
X151400000Y-50600000D03*
X151400000Y-45700000D03*
X151400000Y-43200000D03*
X151400000Y-38300000D03*
X151400000Y-35800000D03*
X151400000Y-31400000D03*
X146600000Y-78000000D03*
X156200000Y-78100000D03*
X148200000Y-84600000D03*
X148200000Y-77100000D03*
X148200000Y-69600000D03*
X148200000Y-62200000D03*
X148200000Y-54700000D03*
X148200000Y-47200000D03*
X148200000Y-39800000D03*
X148200000Y-32400000D03*
X154600000Y-34300000D03*
X154600000Y-41800000D03*
X154600000Y-49200000D03*
X154600000Y-56600000D03*
X154600000Y-64100000D03*
X154600000Y-71600000D03*
X154600000Y-79000000D03*
X154600000Y-86400000D03*
X146900000Y-32300000D03*
X155900000Y-32300000D03*
X156200000Y-86600000D03*
D12*
X146600000Y-86600000D02*
X146600000Y-87900000D01*
D13*
X148200000Y-84600000D02*
X148200000Y-77100000D01*
X148200000Y-77100000D02*
X148200000Y-69600000D01*
X148200000Y-69600000D02*
X148200000Y-62200000D01*
X148200000Y-62200000D02*
X148200000Y-54700000D01*
X148200000Y-54700000D02*
X148200000Y-47200000D01*
X148200000Y-47200000D02*
X148200000Y-39800000D01*
X148200000Y-39800000D02*
X148200000Y-32400000D01*
X148200000Y-32400000D02*
X149500000Y-32400000D01*
X151400000Y-34300000D02*
X154600000Y-34300000D01*
X149500000Y-32400000D02*
X151400000Y-34300000D01*
X154600000Y-34300000D02*
X154600000Y-41800000D01*
X154600000Y-41800000D02*
X154600000Y-49200000D01*
X154600000Y-49200000D02*
X154600000Y-56600000D01*
X154600000Y-56600000D02*
X154600000Y-64100000D01*
X154600000Y-64100000D02*
X154600000Y-71600000D01*
X154600000Y-71600000D02*
X154600000Y-79000000D01*
X154600000Y-79000000D02*
X154600000Y-86400000D01*
X147200000Y-84600000D02*
X146600000Y-85200000D01*
X148200000Y-84600000D02*
X147200000Y-84600000D01*
X155800000Y-85200000D02*
X154600000Y-86400000D01*
X156300000Y-85200000D02*
X155800000Y-85200000D01*
D12*
X146900000Y-32300000D02*
X146900000Y-31700000D01*
X146900000Y-31700000D02*
X148300000Y-30300000D01*
X148300000Y-30300000D02*
X154600000Y-30300000D01*
X155900000Y-31600000D02*
X155900000Y-32300000D01*
X154600000Y-30300000D02*
X155900000Y-31600000D01*
X156200000Y-86500000D02*
X156200000Y-87900000D01*
D14*
G36*
X150780563Y-34861432D02*
G01*
X150806709Y-34893291D01*
X150933854Y-34997636D01*
X151078913Y-35075172D01*
X151236311Y-35122918D01*
X151358981Y-35135000D01*
X151358982Y-35135000D01*
X151400000Y-35139040D01*
X151441018Y-35135000D01*
X153765000Y-35135000D01*
X153765001Y-41186714D01*
X153682795Y-41309744D01*
X153604774Y-41498102D01*
X153565000Y-41698061D01*
X153565000Y-41901939D01*
X153604774Y-42101898D01*
X153682795Y-42290256D01*
X153765000Y-42413285D01*
X153765001Y-48586714D01*
X153682795Y-48709744D01*
X153604774Y-48898102D01*
X153565000Y-49098061D01*
X153565000Y-49301939D01*
X153604774Y-49501898D01*
X153682795Y-49690256D01*
X153765000Y-49813285D01*
X153765001Y-55986714D01*
X153682795Y-56109744D01*
X153604774Y-56298102D01*
X153565000Y-56498061D01*
X153565000Y-56701939D01*
X153604774Y-56901898D01*
X153682795Y-57090256D01*
X153765000Y-57213285D01*
X153765001Y-63486714D01*
X153682795Y-63609744D01*
X153604774Y-63798102D01*
X153565000Y-63998061D01*
X153565000Y-64201939D01*
X153604774Y-64401898D01*
X153682795Y-64590256D01*
X153765000Y-64713285D01*
X153765001Y-70986714D01*
X153682795Y-71109744D01*
X153604774Y-71298102D01*
X153565000Y-71498061D01*
X153565000Y-71701939D01*
X153604774Y-71901898D01*
X153682795Y-72090256D01*
X153765000Y-72213285D01*
X153765001Y-78386714D01*
X153682795Y-78509744D01*
X153604774Y-78698102D01*
X153565000Y-78898061D01*
X153565000Y-79101939D01*
X153604774Y-79301898D01*
X153682795Y-79490256D01*
X153765000Y-79613285D01*
X153765001Y-85786714D01*
X153682795Y-85909744D01*
X153604774Y-86098102D01*
X153565000Y-86298061D01*
X153565000Y-86501939D01*
X153604774Y-86701898D01*
X153682795Y-86890256D01*
X153796063Y-87059774D01*
X153940226Y-87203937D01*
X154109744Y-87317205D01*
X154298102Y-87395226D01*
X154498061Y-87435000D01*
X154701939Y-87435000D01*
X154901898Y-87395226D01*
X154911928Y-87391071D01*
X154911928Y-88640000D01*
X147988072Y-88640000D01*
X147988072Y-87250000D01*
X147975812Y-87125518D01*
X147939502Y-87005820D01*
X147880537Y-86895506D01*
X147801185Y-86798815D01*
X147704494Y-86719463D01*
X147635000Y-86682317D01*
X147635000Y-86517683D01*
X147704494Y-86480537D01*
X147801185Y-86401185D01*
X147880537Y-86304494D01*
X147939502Y-86194180D01*
X147975812Y-86074482D01*
X147988072Y-85950000D01*
X147988072Y-85613122D01*
X148098061Y-85635000D01*
X148301939Y-85635000D01*
X148501898Y-85595226D01*
X148690256Y-85517205D01*
X148859774Y-85403937D01*
X149003937Y-85259774D01*
X149117205Y-85090256D01*
X149195226Y-84901898D01*
X149235000Y-84701939D01*
X149235000Y-84498061D01*
X149195226Y-84298102D01*
X149117205Y-84109744D01*
X149035000Y-83986715D01*
X149035000Y-77713285D01*
X149117205Y-77590256D01*
X149195226Y-77401898D01*
X149235000Y-77201939D01*
X149235000Y-76998061D01*
X149195226Y-76798102D01*
X149117205Y-76609744D01*
X149035000Y-76486715D01*
X149035000Y-70213285D01*
X149117205Y-70090256D01*
X149195226Y-69901898D01*
X149235000Y-69701939D01*
X149235000Y-69498061D01*
X149195226Y-69298102D01*
X149117205Y-69109744D01*
X149035000Y-68986715D01*
X149035000Y-62813285D01*
X149117205Y-62690256D01*
X149195226Y-62501898D01*
X149235000Y-62301939D01*
X149235000Y-62098061D01*
X149195226Y-61898102D01*
X149117205Y-61709744D01*
X149035000Y-61586715D01*
X149035000Y-55313285D01*
X149117205Y-55190256D01*
X149195226Y-55001898D01*
X149235000Y-54801939D01*
X149235000Y-54598061D01*
X149195226Y-54398102D01*
X149117205Y-54209744D01*
X149035000Y-54086715D01*
X149035000Y-47813285D01*
X149117205Y-47690256D01*
X149195226Y-47501898D01*
X149235000Y-47301939D01*
X149235000Y-47098061D01*
X149195226Y-46898102D01*
X149117205Y-46709744D01*
X149035000Y-46586715D01*
X149035000Y-40413285D01*
X149117205Y-40290256D01*
X149195226Y-40101898D01*
X149235000Y-39901939D01*
X149235000Y-39698061D01*
X149195226Y-39498102D01*
X149117205Y-39309744D01*
X149035000Y-39186715D01*
X149035000Y-33235000D01*
X149154133Y-33235000D01*
X150780563Y-34861432D01*
G37*
X150780563Y-34861432D02*
X150806709Y-34893291D01*
X150933854Y-34997636D01*
X151078913Y-35075172D01*
X151236311Y-35122918D01*
X151358981Y-35135000D01*
X151358982Y-35135000D01*
X151400000Y-35139040D01*
X151441018Y-35135000D01*
X153765000Y-35135000D01*
X153765001Y-41186714D01*
X153682795Y-41309744D01*
X153604774Y-41498102D01*
X153565000Y-41698061D01*
X153565000Y-41901939D01*
X153604774Y-42101898D01*
X153682795Y-42290256D01*
X153765000Y-42413285D01*
X153765001Y-48586714D01*
X153682795Y-48709744D01*
X153604774Y-48898102D01*
X153565000Y-49098061D01*
X153565000Y-49301939D01*
X153604774Y-49501898D01*
X153682795Y-49690256D01*
X153765000Y-49813285D01*
X153765001Y-55986714D01*
X153682795Y-56109744D01*
X153604774Y-56298102D01*
X153565000Y-56498061D01*
X153565000Y-56701939D01*
X153604774Y-56901898D01*
X153682795Y-57090256D01*
X153765000Y-57213285D01*
X153765001Y-63486714D01*
X153682795Y-63609744D01*
X153604774Y-63798102D01*
X153565000Y-63998061D01*
X153565000Y-64201939D01*
X153604774Y-64401898D01*
X153682795Y-64590256D01*
X153765000Y-64713285D01*
X153765001Y-70986714D01*
X153682795Y-71109744D01*
X153604774Y-71298102D01*
X153565000Y-71498061D01*
X153565000Y-71701939D01*
X153604774Y-71901898D01*
X153682795Y-72090256D01*
X153765000Y-72213285D01*
X153765001Y-78386714D01*
X153682795Y-78509744D01*
X153604774Y-78698102D01*
X153565000Y-78898061D01*
X153565000Y-79101939D01*
X153604774Y-79301898D01*
X153682795Y-79490256D01*
X153765000Y-79613285D01*
X153765001Y-85786714D01*
X153682795Y-85909744D01*
X153604774Y-86098102D01*
X153565000Y-86298061D01*
X153565000Y-86501939D01*
X153604774Y-86701898D01*
X153682795Y-86890256D01*
X153796063Y-87059774D01*
X153940226Y-87203937D01*
X154109744Y-87317205D01*
X154298102Y-87395226D01*
X154498061Y-87435000D01*
X154701939Y-87435000D01*
X154901898Y-87395226D01*
X154911928Y-87391071D01*
X154911928Y-88640000D01*
X147988072Y-88640000D01*
X147988072Y-87250000D01*
X147975812Y-87125518D01*
X147939502Y-87005820D01*
X147880537Y-86895506D01*
X147801185Y-86798815D01*
X147704494Y-86719463D01*
X147635000Y-86682317D01*
X147635000Y-86517683D01*
X147704494Y-86480537D01*
X147801185Y-86401185D01*
X147880537Y-86304494D01*
X147939502Y-86194180D01*
X147975812Y-86074482D01*
X147988072Y-85950000D01*
X147988072Y-85613122D01*
X148098061Y-85635000D01*
X148301939Y-85635000D01*
X148501898Y-85595226D01*
X148690256Y-85517205D01*
X148859774Y-85403937D01*
X149003937Y-85259774D01*
X149117205Y-85090256D01*
X149195226Y-84901898D01*
X149235000Y-84701939D01*
X149235000Y-84498061D01*
X149195226Y-84298102D01*
X149117205Y-84109744D01*
X149035000Y-83986715D01*
X149035000Y-77713285D01*
X149117205Y-77590256D01*
X149195226Y-77401898D01*
X149235000Y-77201939D01*
X149235000Y-76998061D01*
X149195226Y-76798102D01*
X149117205Y-76609744D01*
X149035000Y-76486715D01*
X149035000Y-70213285D01*
X149117205Y-70090256D01*
X149195226Y-69901898D01*
X149235000Y-69701939D01*
X149235000Y-69498061D01*
X149195226Y-69298102D01*
X149117205Y-69109744D01*
X149035000Y-68986715D01*
X149035000Y-62813285D01*
X149117205Y-62690256D01*
X149195226Y-62501898D01*
X149235000Y-62301939D01*
X149235000Y-62098061D01*
X149195226Y-61898102D01*
X149117205Y-61709744D01*
X149035000Y-61586715D01*
X149035000Y-55313285D01*
X149117205Y-55190256D01*
X149195226Y-55001898D01*
X149235000Y-54801939D01*
X149235000Y-54598061D01*
X149195226Y-54398102D01*
X149117205Y-54209744D01*
X149035000Y-54086715D01*
X149035000Y-47813285D01*
X149117205Y-47690256D01*
X149195226Y-47501898D01*
X149235000Y-47301939D01*
X149235000Y-47098061D01*
X149195226Y-46898102D01*
X149117205Y-46709744D01*
X149035000Y-46586715D01*
X149035000Y-40413285D01*
X149117205Y-40290256D01*
X149195226Y-40101898D01*
X149235000Y-39901939D01*
X149235000Y-39698061D01*
X149195226Y-39498102D01*
X149117205Y-39309744D01*
X149035000Y-39186715D01*
X149035000Y-33235000D01*
X149154133Y-33235000D01*
X150780563Y-34861432D01*
G36*
X155003682Y-31778484D02*
G01*
X154982795Y-31809744D01*
X154904774Y-31998102D01*
X154865000Y-32198061D01*
X154865000Y-32401939D01*
X154904774Y-32601898D01*
X154982795Y-32790256D01*
X155096063Y-32959774D01*
X155240226Y-33103937D01*
X155409744Y-33217205D01*
X155598102Y-33295226D01*
X155798061Y-33335000D01*
X156001939Y-33335000D01*
X156201898Y-33295226D01*
X156390256Y-33217205D01*
X156559774Y-33103937D01*
X156703937Y-32959774D01*
X156817205Y-32790256D01*
X156840000Y-32735224D01*
X156840001Y-81313318D01*
X156585750Y-81315000D01*
X156427000Y-81473750D01*
X156427000Y-82573000D01*
X156447000Y-82573000D01*
X156447000Y-82827000D01*
X156427000Y-82827000D01*
X156427000Y-82847000D01*
X156173000Y-82847000D01*
X156173000Y-82827000D01*
X156153000Y-82827000D01*
X156153000Y-82573000D01*
X156173000Y-82573000D01*
X156173000Y-81473750D01*
X156014250Y-81315000D01*
X155550000Y-81311928D01*
X155435000Y-81323254D01*
X155435000Y-79613285D01*
X155517205Y-79490256D01*
X155595226Y-79301898D01*
X155635000Y-79101939D01*
X155635000Y-78898061D01*
X155595226Y-78698102D01*
X155517205Y-78509744D01*
X155435000Y-78386715D01*
X155435000Y-72213285D01*
X155517205Y-72090256D01*
X155595226Y-71901898D01*
X155635000Y-71701939D01*
X155635000Y-71498061D01*
X155595226Y-71298102D01*
X155517205Y-71109744D01*
X155435000Y-70986715D01*
X155435000Y-64713285D01*
X155517205Y-64590256D01*
X155595226Y-64401898D01*
X155635000Y-64201939D01*
X155635000Y-63998061D01*
X155595226Y-63798102D01*
X155517205Y-63609744D01*
X155435000Y-63486715D01*
X155435000Y-57213285D01*
X155517205Y-57090256D01*
X155595226Y-56901898D01*
X155635000Y-56701939D01*
X155635000Y-56498061D01*
X155595226Y-56298102D01*
X155517205Y-56109744D01*
X155435000Y-55986715D01*
X155435000Y-49813285D01*
X155517205Y-49690256D01*
X155595226Y-49501898D01*
X155635000Y-49301939D01*
X155635000Y-49098061D01*
X155595226Y-48898102D01*
X155517205Y-48709744D01*
X155435000Y-48586715D01*
X155435000Y-42413285D01*
X155517205Y-42290256D01*
X155595226Y-42101898D01*
X155635000Y-41901939D01*
X155635000Y-41698061D01*
X155595226Y-41498102D01*
X155517205Y-41309744D01*
X155435000Y-41186715D01*
X155435000Y-34913285D01*
X155517205Y-34790256D01*
X155595226Y-34601898D01*
X155635000Y-34401939D01*
X155635000Y-34198061D01*
X155595226Y-33998102D01*
X155517205Y-33809744D01*
X155403937Y-33640226D01*
X155259774Y-33496063D01*
X155090256Y-33382795D01*
X154901898Y-33304774D01*
X154701939Y-33265000D01*
X154498061Y-33265000D01*
X154298102Y-33304774D01*
X154109744Y-33382795D01*
X153986715Y-33465000D01*
X151745869Y-33465000D01*
X150119446Y-31838579D01*
X150093291Y-31806709D01*
X149966146Y-31702364D01*
X149821087Y-31624828D01*
X149663689Y-31577082D01*
X149541019Y-31565000D01*
X149541018Y-31565000D01*
X149500000Y-31560960D01*
X149458982Y-31565000D01*
X148813285Y-31565000D01*
X148690256Y-31482795D01*
X148501898Y-31404774D01*
X148308497Y-31366304D01*
X148614802Y-31060000D01*
X154285199Y-31060000D01*
X155003682Y-31778484D01*
G37*
X155003682Y-31778484D02*
X154982795Y-31809744D01*
X154904774Y-31998102D01*
X154865000Y-32198061D01*
X154865000Y-32401939D01*
X154904774Y-32601898D01*
X154982795Y-32790256D01*
X155096063Y-32959774D01*
X155240226Y-33103937D01*
X155409744Y-33217205D01*
X155598102Y-33295226D01*
X155798061Y-33335000D01*
X156001939Y-33335000D01*
X156201898Y-33295226D01*
X156390256Y-33217205D01*
X156559774Y-33103937D01*
X156703937Y-32959774D01*
X156817205Y-32790256D01*
X156840000Y-32735224D01*
X156840001Y-81313318D01*
X156585750Y-81315000D01*
X156427000Y-81473750D01*
X156427000Y-82573000D01*
X156447000Y-82573000D01*
X156447000Y-82827000D01*
X156427000Y-82827000D01*
X156427000Y-82847000D01*
X156173000Y-82847000D01*
X156173000Y-82827000D01*
X156153000Y-82827000D01*
X156153000Y-82573000D01*
X156173000Y-82573000D01*
X156173000Y-81473750D01*
X156014250Y-81315000D01*
X155550000Y-81311928D01*
X155435000Y-81323254D01*
X155435000Y-79613285D01*
X155517205Y-79490256D01*
X155595226Y-79301898D01*
X155635000Y-79101939D01*
X155635000Y-78898061D01*
X155595226Y-78698102D01*
X155517205Y-78509744D01*
X155435000Y-78386715D01*
X155435000Y-72213285D01*
X155517205Y-72090256D01*
X155595226Y-71901898D01*
X155635000Y-71701939D01*
X155635000Y-71498061D01*
X155595226Y-71298102D01*
X155517205Y-71109744D01*
X155435000Y-70986715D01*
X155435000Y-64713285D01*
X155517205Y-64590256D01*
X155595226Y-64401898D01*
X155635000Y-64201939D01*
X155635000Y-63998061D01*
X155595226Y-63798102D01*
X155517205Y-63609744D01*
X155435000Y-63486715D01*
X155435000Y-57213285D01*
X155517205Y-57090256D01*
X155595226Y-56901898D01*
X155635000Y-56701939D01*
X155635000Y-56498061D01*
X155595226Y-56298102D01*
X155517205Y-56109744D01*
X155435000Y-55986715D01*
X155435000Y-49813285D01*
X155517205Y-49690256D01*
X155595226Y-49501898D01*
X155635000Y-49301939D01*
X155635000Y-49098061D01*
X155595226Y-48898102D01*
X155517205Y-48709744D01*
X155435000Y-48586715D01*
X155435000Y-42413285D01*
X155517205Y-42290256D01*
X155595226Y-42101898D01*
X155635000Y-41901939D01*
X155635000Y-41698061D01*
X155595226Y-41498102D01*
X155517205Y-41309744D01*
X155435000Y-41186715D01*
X155435000Y-34913285D01*
X155517205Y-34790256D01*
X155595226Y-34601898D01*
X155635000Y-34401939D01*
X155635000Y-34198061D01*
X155595226Y-33998102D01*
X155517205Y-33809744D01*
X155403937Y-33640226D01*
X155259774Y-33496063D01*
X155090256Y-33382795D01*
X154901898Y-33304774D01*
X154701939Y-33265000D01*
X154498061Y-33265000D01*
X154298102Y-33304774D01*
X154109744Y-33382795D01*
X153986715Y-33465000D01*
X151745869Y-33465000D01*
X150119446Y-31838579D01*
X150093291Y-31806709D01*
X149966146Y-31702364D01*
X149821087Y-31624828D01*
X149663689Y-31577082D01*
X149541019Y-31565000D01*
X149541018Y-31565000D01*
X149500000Y-31560960D01*
X149458982Y-31565000D01*
X148813285Y-31565000D01*
X148690256Y-31482795D01*
X148501898Y-31404774D01*
X148308497Y-31366304D01*
X148614802Y-31060000D01*
X154285199Y-31060000D01*
X155003682Y-31778484D01*
G36*
X145904774Y-32601898D02*
G01*
X145982795Y-32790256D01*
X146096063Y-32959774D01*
X146240226Y-33103937D01*
X146409744Y-33217205D01*
X146598102Y-33295226D01*
X146798061Y-33335000D01*
X147001939Y-33335000D01*
X147201898Y-33295226D01*
X147365001Y-33227666D01*
X147365000Y-39186715D01*
X147282795Y-39309744D01*
X147204774Y-39498102D01*
X147165000Y-39698061D01*
X147165000Y-39901939D01*
X147204774Y-40101898D01*
X147282795Y-40290256D01*
X147365001Y-40413286D01*
X147365000Y-46586715D01*
X147282795Y-46709744D01*
X147204774Y-46898102D01*
X147165000Y-47098061D01*
X147165000Y-47301939D01*
X147204774Y-47501898D01*
X147282795Y-47690256D01*
X147365001Y-47813286D01*
X147365000Y-54086715D01*
X147282795Y-54209744D01*
X147204774Y-54398102D01*
X147165000Y-54598061D01*
X147165000Y-54801939D01*
X147204774Y-55001898D01*
X147282795Y-55190256D01*
X147365001Y-55313286D01*
X147365000Y-61586715D01*
X147282795Y-61709744D01*
X147204774Y-61898102D01*
X147165000Y-62098061D01*
X147165000Y-62301939D01*
X147204774Y-62501898D01*
X147282795Y-62690256D01*
X147365001Y-62813286D01*
X147365000Y-68986715D01*
X147282795Y-69109744D01*
X147204774Y-69298102D01*
X147165000Y-69498061D01*
X147165000Y-69701939D01*
X147204774Y-69901898D01*
X147282795Y-70090256D01*
X147365001Y-70213286D01*
X147365000Y-76486715D01*
X147282795Y-76609744D01*
X147204774Y-76798102D01*
X147165000Y-76998061D01*
X147165000Y-77201939D01*
X147204774Y-77401898D01*
X147282795Y-77590256D01*
X147365001Y-77713286D01*
X147365000Y-81313405D01*
X147350000Y-81311928D01*
X146885750Y-81315000D01*
X146727000Y-81473750D01*
X146727000Y-82573000D01*
X146747000Y-82573000D01*
X146747000Y-82827000D01*
X146727000Y-82827000D01*
X146727000Y-82847000D01*
X146473000Y-82847000D01*
X146473000Y-82827000D01*
X146453000Y-82827000D01*
X146453000Y-82573000D01*
X146473000Y-82573000D01*
X146473000Y-81473750D01*
X146314250Y-81315000D01*
X145880000Y-81312127D01*
X145880000Y-32477350D01*
X145904774Y-32601898D01*
G37*
X145904774Y-32601898D02*
X145982795Y-32790256D01*
X146096063Y-32959774D01*
X146240226Y-33103937D01*
X146409744Y-33217205D01*
X146598102Y-33295226D01*
X146798061Y-33335000D01*
X147001939Y-33335000D01*
X147201898Y-33295226D01*
X147365001Y-33227666D01*
X147365000Y-39186715D01*
X147282795Y-39309744D01*
X147204774Y-39498102D01*
X147165000Y-39698061D01*
X147165000Y-39901939D01*
X147204774Y-40101898D01*
X147282795Y-40290256D01*
X147365001Y-40413286D01*
X147365000Y-46586715D01*
X147282795Y-46709744D01*
X147204774Y-46898102D01*
X147165000Y-47098061D01*
X147165000Y-47301939D01*
X147204774Y-47501898D01*
X147282795Y-47690256D01*
X147365001Y-47813286D01*
X147365000Y-54086715D01*
X147282795Y-54209744D01*
X147204774Y-54398102D01*
X147165000Y-54598061D01*
X147165000Y-54801939D01*
X147204774Y-55001898D01*
X147282795Y-55190256D01*
X147365001Y-55313286D01*
X147365000Y-61586715D01*
X147282795Y-61709744D01*
X147204774Y-61898102D01*
X147165000Y-62098061D01*
X147165000Y-62301939D01*
X147204774Y-62501898D01*
X147282795Y-62690256D01*
X147365001Y-62813286D01*
X147365000Y-68986715D01*
X147282795Y-69109744D01*
X147204774Y-69298102D01*
X147165000Y-69498061D01*
X147165000Y-69701939D01*
X147204774Y-69901898D01*
X147282795Y-70090256D01*
X147365001Y-70213286D01*
X147365000Y-76486715D01*
X147282795Y-76609744D01*
X147204774Y-76798102D01*
X147165000Y-76998061D01*
X147165000Y-77201939D01*
X147204774Y-77401898D01*
X147282795Y-77590256D01*
X147365001Y-77713286D01*
X147365000Y-81313405D01*
X147350000Y-81311928D01*
X146885750Y-81315000D01*
X146727000Y-81473750D01*
X146727000Y-82573000D01*
X146747000Y-82573000D01*
X146747000Y-82827000D01*
X146727000Y-82827000D01*
X146727000Y-82847000D01*
X146473000Y-82847000D01*
X146473000Y-82827000D01*
X146453000Y-82827000D01*
X146453000Y-82573000D01*
X146473000Y-82573000D01*
X146473000Y-81473750D01*
X146314250Y-81315000D01*
X145880000Y-81312127D01*
X145880000Y-32477350D01*
X145904774Y-32601898D01*
M02*
