G04 #@! TF.GenerationSoftware,KiCad,Pcbnew,(5.1.6)-1*
G04 #@! TF.CreationDate,2020-08-07T11:21:43-04:00*
G04 #@! TF.ProjectId,daftPunk,64616674-5075-46e6-9b2e-6b696361645f,rev?*
G04 #@! TF.SameCoordinates,Original*
G04 #@! TF.FileFunction,Paste,Top*
G04 #@! TF.FilePolarity,Positive*
%FSLAX46Y46*%
G04 Gerber Fmt 4.6, Leading zero omitted, Abs format (unit mm)*
G04 Created by KiCad (PCBNEW (5.1.6)-1) date 2020-08-07 11:21:43*
%MOMM*%
%LPD*%
G01*
G04 APERTURE LIST*
%ADD10R,1.000000X1.500000*%
G04 APERTURE END LIST*
D10*
X146600000Y-87950000D03*
X148200000Y-87950000D03*
X149800000Y-87950000D03*
X146600000Y-83050000D03*
X148200000Y-83050000D03*
X149800000Y-83050000D03*
X149800000Y-75592852D03*
X148200000Y-75592852D03*
X146600000Y-75592852D03*
X149800000Y-80492852D03*
X148200000Y-80492852D03*
X146600000Y-80492852D03*
X149800000Y-68135710D03*
X148200000Y-68135710D03*
X146600000Y-68135710D03*
X149800000Y-73035710D03*
X148200000Y-73035710D03*
X146600000Y-73035710D03*
X146600000Y-65578568D03*
X148200000Y-65578568D03*
X149800000Y-65578568D03*
X146600000Y-60678568D03*
X148200000Y-60678568D03*
X149800000Y-60678568D03*
X149800000Y-53221426D03*
X148200000Y-53221426D03*
X146600000Y-53221426D03*
X149800000Y-58121426D03*
X148200000Y-58121426D03*
X146600000Y-58121426D03*
X146600000Y-50664284D03*
X148200000Y-50664284D03*
X149800000Y-50664284D03*
X146600000Y-45764284D03*
X148200000Y-45764284D03*
X149800000Y-45764284D03*
X149800000Y-38307142D03*
X148200000Y-38307142D03*
X146600000Y-38307142D03*
X149800000Y-43207142D03*
X148200000Y-43207142D03*
X146600000Y-43207142D03*
X146600000Y-35750000D03*
X148200000Y-35750000D03*
X149800000Y-35750000D03*
X146600000Y-30850000D03*
X148200000Y-30850000D03*
X149800000Y-30850000D03*
X153000000Y-35750000D03*
X154600000Y-35750000D03*
X156200000Y-35750000D03*
X153000000Y-30850000D03*
X154600000Y-30850000D03*
X156200000Y-30850000D03*
X156200000Y-38307142D03*
X154600000Y-38307142D03*
X153000000Y-38307142D03*
X156200000Y-43207142D03*
X154600000Y-43207142D03*
X153000000Y-43207142D03*
X153000000Y-50664284D03*
X154600000Y-50664284D03*
X156200000Y-50664284D03*
X153000000Y-45764284D03*
X154600000Y-45764284D03*
X156200000Y-45764284D03*
X156200000Y-53221426D03*
X154600000Y-53221426D03*
X153000000Y-53221426D03*
X156200000Y-58121426D03*
X154600000Y-58121426D03*
X153000000Y-58121426D03*
X153000000Y-65578568D03*
X154600000Y-65578568D03*
X156200000Y-65578568D03*
X153000000Y-60678568D03*
X154600000Y-60678568D03*
X156200000Y-60678568D03*
X156200000Y-68135710D03*
X154600000Y-68135710D03*
X153000000Y-68135710D03*
X156200000Y-73035710D03*
X154600000Y-73035710D03*
X153000000Y-73035710D03*
X153000000Y-80492852D03*
X154600000Y-80492852D03*
X156200000Y-80492852D03*
X153000000Y-75592852D03*
X154600000Y-75592852D03*
X156200000Y-75592852D03*
X156200000Y-83050000D03*
X154600000Y-83050000D03*
X153000000Y-83050000D03*
X156200000Y-87950000D03*
X154600000Y-87950000D03*
X153000000Y-87950000D03*
M02*
