G04 #@! TF.GenerationSoftware,KiCad,Pcbnew,(5.1.6)-1*
G04 #@! TF.CreationDate,2020-08-07T11:21:43-04:00*
G04 #@! TF.ProjectId,daftPunk,64616674-5075-46e6-9b2e-6b696361645f,rev?*
G04 #@! TF.SameCoordinates,Original*
G04 #@! TF.FileFunction,Copper,L1,Top*
G04 #@! TF.FilePolarity,Positive*
%FSLAX46Y46*%
G04 Gerber Fmt 4.6, Leading zero omitted, Abs format (unit mm)*
G04 Created by KiCad (PCBNEW (5.1.6)-1) date 2020-08-07 11:21:43*
%MOMM*%
%LPD*%
G01*
G04 APERTURE LIST*
G04 #@! TA.AperFunction,SMDPad,CuDef*
%ADD10R,1.000000X1.500000*%
G04 #@! TD*
G04 #@! TA.AperFunction,ViaPad*
%ADD11C,0.800000*%
G04 #@! TD*
G04 #@! TA.AperFunction,Conductor*
%ADD12C,0.250000*%
G04 #@! TD*
G04 #@! TA.AperFunction,Conductor*
%ADD13C,0.400000*%
G04 #@! TD*
G04 #@! TA.AperFunction,Conductor*
%ADD14C,0.254000*%
G04 #@! TD*
G04 APERTURE END LIST*
D10*
X146600000Y-87950000D03*
X148200000Y-87950000D03*
X149800000Y-87950000D03*
X146600000Y-83050000D03*
X148200000Y-83050000D03*
X149800000Y-83050000D03*
X149800000Y-75592852D03*
X148200000Y-75592852D03*
X146600000Y-75592852D03*
X149800000Y-80492852D03*
X148200000Y-80492852D03*
X146600000Y-80492852D03*
X149800000Y-68135710D03*
X148200000Y-68135710D03*
X146600000Y-68135710D03*
X149800000Y-73035710D03*
X148200000Y-73035710D03*
X146600000Y-73035710D03*
X146600000Y-65578568D03*
X148200000Y-65578568D03*
X149800000Y-65578568D03*
X146600000Y-60678568D03*
X148200000Y-60678568D03*
X149800000Y-60678568D03*
X149800000Y-53221426D03*
X148200000Y-53221426D03*
X146600000Y-53221426D03*
X149800000Y-58121426D03*
X148200000Y-58121426D03*
X146600000Y-58121426D03*
X146600000Y-50664284D03*
X148200000Y-50664284D03*
X149800000Y-50664284D03*
X146600000Y-45764284D03*
X148200000Y-45764284D03*
X149800000Y-45764284D03*
X149800000Y-38307142D03*
X148200000Y-38307142D03*
X146600000Y-38307142D03*
X149800000Y-43207142D03*
X148200000Y-43207142D03*
X146600000Y-43207142D03*
X146600000Y-35750000D03*
X148200000Y-35750000D03*
X149800000Y-35750000D03*
X146600000Y-30850000D03*
X148200000Y-30850000D03*
X149800000Y-30850000D03*
X153000000Y-35750000D03*
X154600000Y-35750000D03*
X156200000Y-35750000D03*
X153000000Y-30850000D03*
X154600000Y-30850000D03*
X156200000Y-30850000D03*
X156200000Y-38307142D03*
X154600000Y-38307142D03*
X153000000Y-38307142D03*
X156200000Y-43207142D03*
X154600000Y-43207142D03*
X153000000Y-43207142D03*
X153000000Y-50664284D03*
X154600000Y-50664284D03*
X156200000Y-50664284D03*
X153000000Y-45764284D03*
X154600000Y-45764284D03*
X156200000Y-45764284D03*
X156200000Y-53221426D03*
X154600000Y-53221426D03*
X153000000Y-53221426D03*
X156200000Y-58121426D03*
X154600000Y-58121426D03*
X153000000Y-58121426D03*
X153000000Y-65578568D03*
X154600000Y-65578568D03*
X156200000Y-65578568D03*
X153000000Y-60678568D03*
X154600000Y-60678568D03*
X156200000Y-60678568D03*
X156200000Y-68135710D03*
X154600000Y-68135710D03*
X153000000Y-68135710D03*
X156200000Y-73035710D03*
X154600000Y-73035710D03*
X153000000Y-73035710D03*
X153000000Y-80492852D03*
X154600000Y-80492852D03*
X156200000Y-80492852D03*
X153000000Y-75592852D03*
X154600000Y-75592852D03*
X156200000Y-75592852D03*
X156200000Y-83050000D03*
X154600000Y-83050000D03*
X153000000Y-83050000D03*
X156200000Y-87950000D03*
X154600000Y-87950000D03*
X153000000Y-87950000D03*
D11*
X146600000Y-86600000D03*
X146600000Y-70600000D03*
X156200000Y-70700000D03*
X146600000Y-63200000D03*
X156200000Y-63300000D03*
X146600000Y-55700000D03*
X156200000Y-55800000D03*
X146600000Y-48200000D03*
X156200000Y-48300000D03*
X146600000Y-40600000D03*
X156200000Y-40700000D03*
X146700000Y-33700000D03*
X156300000Y-33800000D03*
X151400000Y-87900000D03*
X151400000Y-83000000D03*
X151400000Y-80500000D03*
X151400000Y-75600000D03*
X151400000Y-73000000D03*
X151400000Y-68100000D03*
X151400000Y-65500000D03*
X151400000Y-60700000D03*
X151400000Y-58100000D03*
X151400000Y-53200000D03*
X151400000Y-50600000D03*
X151400000Y-45700000D03*
X151400000Y-43200000D03*
X151400000Y-38300000D03*
X151400000Y-35800000D03*
X151400000Y-31400000D03*
X146600000Y-78000000D03*
X156200000Y-78100000D03*
X148200000Y-84600000D03*
X148200000Y-77100000D03*
X148200000Y-69600000D03*
X148200000Y-62200000D03*
X148200000Y-54700000D03*
X148200000Y-47200000D03*
X148200000Y-39800000D03*
X148200000Y-32400000D03*
X154600000Y-34300000D03*
X154600000Y-41800000D03*
X154600000Y-49200000D03*
X154600000Y-56600000D03*
X154600000Y-64100000D03*
X154600000Y-71600000D03*
X154600000Y-79000000D03*
X154600000Y-86400000D03*
X146900000Y-32300000D03*
X155900000Y-32300000D03*
X156200000Y-86600000D03*
D12*
X146174999Y-88375001D02*
X146600000Y-87950000D01*
X146600000Y-86600000D02*
X146600000Y-87950000D01*
X146600000Y-83050000D02*
X146600000Y-80492852D01*
D13*
X154600000Y-86400000D02*
X154600000Y-87950000D01*
X154600000Y-79000000D02*
X154600000Y-80492852D01*
X154600000Y-71600000D02*
X154600000Y-73035710D01*
X154600000Y-64100000D02*
X154600000Y-65578568D01*
X154600000Y-56600000D02*
X154600000Y-58121426D01*
X154600000Y-49200000D02*
X154600000Y-50664284D01*
X154600000Y-41800000D02*
X154600000Y-43207142D01*
X154600000Y-34300000D02*
X154600000Y-35750000D01*
X148200000Y-32400000D02*
X148200000Y-30850000D01*
X148200000Y-39800000D02*
X148200000Y-38307142D01*
X148200000Y-47200000D02*
X148200000Y-45764284D01*
X148200000Y-54700000D02*
X148200000Y-53221426D01*
X148200000Y-62200000D02*
X148200000Y-60678568D01*
X148200000Y-69600000D02*
X148200000Y-68135710D01*
X148200000Y-77100000D02*
X148200000Y-75592852D01*
X148200000Y-84600000D02*
X148200000Y-83050000D01*
D12*
X146600000Y-75592852D02*
X146600000Y-73035710D01*
X146600000Y-68135710D02*
X146600000Y-65578568D01*
X146600000Y-60678568D02*
X146600000Y-58121426D01*
X146600000Y-53221426D02*
X146600000Y-50664284D01*
X146600000Y-45764284D02*
X146600000Y-43207142D01*
X146600000Y-38307142D02*
X146600000Y-35750000D01*
X156200000Y-31085002D02*
X156200000Y-30850000D01*
X146600000Y-32000000D02*
X146900000Y-32300000D01*
X146600000Y-30850000D02*
X146600000Y-32000000D01*
X156200000Y-32000000D02*
X155900000Y-32300000D01*
X156200000Y-30850000D02*
X156200000Y-32000000D01*
X156200000Y-35750000D02*
X156200000Y-38307142D01*
X156200000Y-43207142D02*
X156200000Y-45764284D01*
X156200000Y-50664284D02*
X156200000Y-53221426D01*
X156200000Y-58121426D02*
X156200000Y-60678568D01*
X156200000Y-65578568D02*
X156200000Y-68135710D01*
X156200000Y-73035710D02*
X156200000Y-75592852D01*
X156200000Y-80492852D02*
X156200000Y-83050000D01*
X156200000Y-87950000D02*
X156525001Y-88275001D01*
X156200000Y-86600000D02*
X156300000Y-86500000D01*
X156200000Y-87950000D02*
X156200000Y-86600000D01*
D14*
G36*
X151865000Y-30564250D02*
G01*
X152023750Y-30723000D01*
X152873000Y-30723000D01*
X152873000Y-30703000D01*
X153127000Y-30703000D01*
X153127000Y-30723000D01*
X154473000Y-30723000D01*
X154473000Y-30703000D01*
X154727000Y-30703000D01*
X154727000Y-30723000D01*
X154747000Y-30723000D01*
X154747000Y-30977000D01*
X154727000Y-30977000D01*
X154727000Y-32076250D01*
X154865000Y-32214250D01*
X154865000Y-32401939D01*
X154904774Y-32601898D01*
X154982795Y-32790256D01*
X155096063Y-32959774D01*
X155240226Y-33103937D01*
X155409744Y-33217205D01*
X155598102Y-33295226D01*
X155798061Y-33335000D01*
X156001939Y-33335000D01*
X156201898Y-33295226D01*
X156390256Y-33217205D01*
X156559774Y-33103937D01*
X156703937Y-32959774D01*
X156817205Y-32790256D01*
X156840000Y-32735224D01*
X156840000Y-34378895D01*
X156824482Y-34374188D01*
X156700000Y-34361928D01*
X155700000Y-34361928D01*
X155635000Y-34368330D01*
X155635000Y-34198061D01*
X155595226Y-33998102D01*
X155517205Y-33809744D01*
X155403937Y-33640226D01*
X155259774Y-33496063D01*
X155090256Y-33382795D01*
X154901898Y-33304774D01*
X154701939Y-33265000D01*
X154498061Y-33265000D01*
X154298102Y-33304774D01*
X154109744Y-33382795D01*
X153940226Y-33496063D01*
X153796063Y-33640226D01*
X153682795Y-33809744D01*
X153604774Y-33998102D01*
X153565000Y-34198061D01*
X153565000Y-34368330D01*
X153500000Y-34361928D01*
X152500000Y-34361928D01*
X152375518Y-34374188D01*
X152255820Y-34410498D01*
X152145506Y-34469463D01*
X152048815Y-34548815D01*
X151969463Y-34645506D01*
X151910498Y-34755820D01*
X151874188Y-34875518D01*
X151861928Y-35000000D01*
X151861928Y-36500000D01*
X151874188Y-36624482D01*
X151910498Y-36744180D01*
X151969463Y-36854494D01*
X152048815Y-36951185D01*
X152143110Y-37028571D01*
X152048815Y-37105957D01*
X151969463Y-37202648D01*
X151910498Y-37312962D01*
X151874188Y-37432660D01*
X151861928Y-37557142D01*
X151865000Y-38021392D01*
X152023750Y-38180142D01*
X152873000Y-38180142D01*
X152873000Y-38160142D01*
X153127000Y-38160142D01*
X153127000Y-38180142D01*
X154473000Y-38180142D01*
X154473000Y-38160142D01*
X154727000Y-38160142D01*
X154727000Y-38180142D01*
X154747000Y-38180142D01*
X154747000Y-38434142D01*
X154727000Y-38434142D01*
X154727000Y-39533392D01*
X154885750Y-39692142D01*
X155100000Y-39695214D01*
X155224482Y-39682954D01*
X155344180Y-39646644D01*
X155400000Y-39616807D01*
X155455820Y-39646644D01*
X155575518Y-39682954D01*
X155700000Y-39695214D01*
X156700000Y-39695214D01*
X156824482Y-39682954D01*
X156840000Y-39678247D01*
X156840000Y-41836037D01*
X156824482Y-41831330D01*
X156700000Y-41819070D01*
X155700000Y-41819070D01*
X155635000Y-41825472D01*
X155635000Y-41698061D01*
X155595226Y-41498102D01*
X155517205Y-41309744D01*
X155403937Y-41140226D01*
X155259774Y-40996063D01*
X155090256Y-40882795D01*
X154901898Y-40804774D01*
X154701939Y-40765000D01*
X154498061Y-40765000D01*
X154298102Y-40804774D01*
X154109744Y-40882795D01*
X153940226Y-40996063D01*
X153796063Y-41140226D01*
X153682795Y-41309744D01*
X153604774Y-41498102D01*
X153565000Y-41698061D01*
X153565000Y-41825472D01*
X153500000Y-41819070D01*
X152500000Y-41819070D01*
X152375518Y-41831330D01*
X152255820Y-41867640D01*
X152145506Y-41926605D01*
X152048815Y-42005957D01*
X151969463Y-42102648D01*
X151910498Y-42212962D01*
X151874188Y-42332660D01*
X151861928Y-42457142D01*
X151861928Y-43957142D01*
X151874188Y-44081624D01*
X151910498Y-44201322D01*
X151969463Y-44311636D01*
X152048815Y-44408327D01*
X152143110Y-44485713D01*
X152048815Y-44563099D01*
X151969463Y-44659790D01*
X151910498Y-44770104D01*
X151874188Y-44889802D01*
X151861928Y-45014284D01*
X151865000Y-45478534D01*
X152023750Y-45637284D01*
X152873000Y-45637284D01*
X152873000Y-45617284D01*
X153127000Y-45617284D01*
X153127000Y-45637284D01*
X154473000Y-45637284D01*
X154473000Y-45617284D01*
X154727000Y-45617284D01*
X154727000Y-45637284D01*
X154747000Y-45637284D01*
X154747000Y-45891284D01*
X154727000Y-45891284D01*
X154727000Y-46990534D01*
X154885750Y-47149284D01*
X155100000Y-47152356D01*
X155224482Y-47140096D01*
X155344180Y-47103786D01*
X155400000Y-47073949D01*
X155455820Y-47103786D01*
X155575518Y-47140096D01*
X155700000Y-47152356D01*
X156700000Y-47152356D01*
X156824482Y-47140096D01*
X156840000Y-47135389D01*
X156840000Y-49293179D01*
X156824482Y-49288472D01*
X156700000Y-49276212D01*
X155700000Y-49276212D01*
X155635000Y-49282614D01*
X155635000Y-49098061D01*
X155595226Y-48898102D01*
X155517205Y-48709744D01*
X155403937Y-48540226D01*
X155259774Y-48396063D01*
X155090256Y-48282795D01*
X154901898Y-48204774D01*
X154701939Y-48165000D01*
X154498061Y-48165000D01*
X154298102Y-48204774D01*
X154109744Y-48282795D01*
X153940226Y-48396063D01*
X153796063Y-48540226D01*
X153682795Y-48709744D01*
X153604774Y-48898102D01*
X153565000Y-49098061D01*
X153565000Y-49282614D01*
X153500000Y-49276212D01*
X152500000Y-49276212D01*
X152375518Y-49288472D01*
X152255820Y-49324782D01*
X152145506Y-49383747D01*
X152048815Y-49463099D01*
X151969463Y-49559790D01*
X151910498Y-49670104D01*
X151874188Y-49789802D01*
X151861928Y-49914284D01*
X151861928Y-51414284D01*
X151874188Y-51538766D01*
X151910498Y-51658464D01*
X151969463Y-51768778D01*
X152048815Y-51865469D01*
X152143110Y-51942855D01*
X152048815Y-52020241D01*
X151969463Y-52116932D01*
X151910498Y-52227246D01*
X151874188Y-52346944D01*
X151861928Y-52471426D01*
X151865000Y-52935676D01*
X152023750Y-53094426D01*
X152873000Y-53094426D01*
X152873000Y-53074426D01*
X153127000Y-53074426D01*
X153127000Y-53094426D01*
X154473000Y-53094426D01*
X154473000Y-53074426D01*
X154727000Y-53074426D01*
X154727000Y-53094426D01*
X154747000Y-53094426D01*
X154747000Y-53348426D01*
X154727000Y-53348426D01*
X154727000Y-54447676D01*
X154885750Y-54606426D01*
X155100000Y-54609498D01*
X155224482Y-54597238D01*
X155344180Y-54560928D01*
X155400000Y-54531091D01*
X155455820Y-54560928D01*
X155575518Y-54597238D01*
X155700000Y-54609498D01*
X156700000Y-54609498D01*
X156824482Y-54597238D01*
X156840000Y-54592531D01*
X156840000Y-56750321D01*
X156824482Y-56745614D01*
X156700000Y-56733354D01*
X155700000Y-56733354D01*
X155627328Y-56740511D01*
X155635000Y-56701939D01*
X155635000Y-56498061D01*
X155595226Y-56298102D01*
X155517205Y-56109744D01*
X155403937Y-55940226D01*
X155259774Y-55796063D01*
X155090256Y-55682795D01*
X154901898Y-55604774D01*
X154701939Y-55565000D01*
X154498061Y-55565000D01*
X154298102Y-55604774D01*
X154109744Y-55682795D01*
X153940226Y-55796063D01*
X153796063Y-55940226D01*
X153682795Y-56109744D01*
X153604774Y-56298102D01*
X153565000Y-56498061D01*
X153565000Y-56701939D01*
X153572672Y-56740511D01*
X153500000Y-56733354D01*
X152500000Y-56733354D01*
X152375518Y-56745614D01*
X152255820Y-56781924D01*
X152145506Y-56840889D01*
X152048815Y-56920241D01*
X151969463Y-57016932D01*
X151910498Y-57127246D01*
X151874188Y-57246944D01*
X151861928Y-57371426D01*
X151861928Y-58871426D01*
X151874188Y-58995908D01*
X151910498Y-59115606D01*
X151969463Y-59225920D01*
X152048815Y-59322611D01*
X152143110Y-59399997D01*
X152048815Y-59477383D01*
X151969463Y-59574074D01*
X151910498Y-59684388D01*
X151874188Y-59804086D01*
X151861928Y-59928568D01*
X151865000Y-60392818D01*
X152023750Y-60551568D01*
X152873000Y-60551568D01*
X152873000Y-60531568D01*
X153127000Y-60531568D01*
X153127000Y-60551568D01*
X154473000Y-60551568D01*
X154473000Y-60531568D01*
X154727000Y-60531568D01*
X154727000Y-60551568D01*
X154747000Y-60551568D01*
X154747000Y-60805568D01*
X154727000Y-60805568D01*
X154727000Y-61904818D01*
X154885750Y-62063568D01*
X155100000Y-62066640D01*
X155224482Y-62054380D01*
X155344180Y-62018070D01*
X155400000Y-61988233D01*
X155455820Y-62018070D01*
X155575518Y-62054380D01*
X155700000Y-62066640D01*
X156700000Y-62066640D01*
X156824482Y-62054380D01*
X156840001Y-62049673D01*
X156840001Y-64207464D01*
X156824482Y-64202756D01*
X156700000Y-64190496D01*
X155700000Y-64190496D01*
X155635000Y-64196898D01*
X155635000Y-63998061D01*
X155595226Y-63798102D01*
X155517205Y-63609744D01*
X155403937Y-63440226D01*
X155259774Y-63296063D01*
X155090256Y-63182795D01*
X154901898Y-63104774D01*
X154701939Y-63065000D01*
X154498061Y-63065000D01*
X154298102Y-63104774D01*
X154109744Y-63182795D01*
X153940226Y-63296063D01*
X153796063Y-63440226D01*
X153682795Y-63609744D01*
X153604774Y-63798102D01*
X153565000Y-63998061D01*
X153565000Y-64196898D01*
X153500000Y-64190496D01*
X152500000Y-64190496D01*
X152375518Y-64202756D01*
X152255820Y-64239066D01*
X152145506Y-64298031D01*
X152048815Y-64377383D01*
X151969463Y-64474074D01*
X151910498Y-64584388D01*
X151874188Y-64704086D01*
X151861928Y-64828568D01*
X151861928Y-66328568D01*
X151874188Y-66453050D01*
X151910498Y-66572748D01*
X151969463Y-66683062D01*
X152048815Y-66779753D01*
X152143110Y-66857139D01*
X152048815Y-66934525D01*
X151969463Y-67031216D01*
X151910498Y-67141530D01*
X151874188Y-67261228D01*
X151861928Y-67385710D01*
X151865000Y-67849960D01*
X152023750Y-68008710D01*
X152873000Y-68008710D01*
X152873000Y-67988710D01*
X153127000Y-67988710D01*
X153127000Y-68008710D01*
X154473000Y-68008710D01*
X154473000Y-67988710D01*
X154727000Y-67988710D01*
X154727000Y-68008710D01*
X154747000Y-68008710D01*
X154747000Y-68262710D01*
X154727000Y-68262710D01*
X154727000Y-69361960D01*
X154885750Y-69520710D01*
X155100000Y-69523782D01*
X155224482Y-69511522D01*
X155344180Y-69475212D01*
X155400000Y-69445375D01*
X155455820Y-69475212D01*
X155575518Y-69511522D01*
X155700000Y-69523782D01*
X156700000Y-69523782D01*
X156824482Y-69511522D01*
X156840001Y-69506814D01*
X156840001Y-71664606D01*
X156824482Y-71659898D01*
X156700000Y-71647638D01*
X155700000Y-71647638D01*
X155635000Y-71654040D01*
X155635000Y-71498061D01*
X155595226Y-71298102D01*
X155517205Y-71109744D01*
X155403937Y-70940226D01*
X155259774Y-70796063D01*
X155090256Y-70682795D01*
X154901898Y-70604774D01*
X154701939Y-70565000D01*
X154498061Y-70565000D01*
X154298102Y-70604774D01*
X154109744Y-70682795D01*
X153940226Y-70796063D01*
X153796063Y-70940226D01*
X153682795Y-71109744D01*
X153604774Y-71298102D01*
X153565000Y-71498061D01*
X153565000Y-71654040D01*
X153500000Y-71647638D01*
X152500000Y-71647638D01*
X152375518Y-71659898D01*
X152255820Y-71696208D01*
X152145506Y-71755173D01*
X152048815Y-71834525D01*
X151969463Y-71931216D01*
X151910498Y-72041530D01*
X151874188Y-72161228D01*
X151861928Y-72285710D01*
X151861928Y-73785710D01*
X151874188Y-73910192D01*
X151910498Y-74029890D01*
X151969463Y-74140204D01*
X152048815Y-74236895D01*
X152143110Y-74314281D01*
X152048815Y-74391667D01*
X151969463Y-74488358D01*
X151910498Y-74598672D01*
X151874188Y-74718370D01*
X151861928Y-74842852D01*
X151865000Y-75307102D01*
X152023750Y-75465852D01*
X152873000Y-75465852D01*
X152873000Y-75445852D01*
X153127000Y-75445852D01*
X153127000Y-75465852D01*
X154473000Y-75465852D01*
X154473000Y-75445852D01*
X154727000Y-75445852D01*
X154727000Y-75465852D01*
X154747000Y-75465852D01*
X154747000Y-75719852D01*
X154727000Y-75719852D01*
X154727000Y-76819102D01*
X154885750Y-76977852D01*
X155100000Y-76980924D01*
X155224482Y-76968664D01*
X155344180Y-76932354D01*
X155400000Y-76902517D01*
X155455820Y-76932354D01*
X155575518Y-76968664D01*
X155700000Y-76980924D01*
X156700000Y-76980924D01*
X156824482Y-76968664D01*
X156840001Y-76963956D01*
X156840001Y-79121748D01*
X156824482Y-79117040D01*
X156700000Y-79104780D01*
X155700000Y-79104780D01*
X155633125Y-79111366D01*
X155635000Y-79101939D01*
X155635000Y-78898061D01*
X155595226Y-78698102D01*
X155517205Y-78509744D01*
X155403937Y-78340226D01*
X155259774Y-78196063D01*
X155090256Y-78082795D01*
X154901898Y-78004774D01*
X154701939Y-77965000D01*
X154498061Y-77965000D01*
X154298102Y-78004774D01*
X154109744Y-78082795D01*
X153940226Y-78196063D01*
X153796063Y-78340226D01*
X153682795Y-78509744D01*
X153604774Y-78698102D01*
X153565000Y-78898061D01*
X153565000Y-79101939D01*
X153566875Y-79111366D01*
X153500000Y-79104780D01*
X152500000Y-79104780D01*
X152375518Y-79117040D01*
X152255820Y-79153350D01*
X152145506Y-79212315D01*
X152048815Y-79291667D01*
X151969463Y-79388358D01*
X151910498Y-79498672D01*
X151874188Y-79618370D01*
X151861928Y-79742852D01*
X151861928Y-81242852D01*
X151874188Y-81367334D01*
X151910498Y-81487032D01*
X151969463Y-81597346D01*
X152048815Y-81694037D01*
X152143114Y-81771426D01*
X152048815Y-81848815D01*
X151969463Y-81945506D01*
X151910498Y-82055820D01*
X151874188Y-82175518D01*
X151861928Y-82300000D01*
X151865000Y-82764250D01*
X152023750Y-82923000D01*
X152873000Y-82923000D01*
X152873000Y-82903000D01*
X153127000Y-82903000D01*
X153127000Y-82923000D01*
X154473000Y-82923000D01*
X154473000Y-82903000D01*
X154727000Y-82903000D01*
X154727000Y-82923000D01*
X154747000Y-82923000D01*
X154747000Y-83177000D01*
X154727000Y-83177000D01*
X154727000Y-84276250D01*
X154885750Y-84435000D01*
X155100000Y-84438072D01*
X155224482Y-84425812D01*
X155344180Y-84389502D01*
X155400000Y-84359665D01*
X155455820Y-84389502D01*
X155575518Y-84425812D01*
X155700000Y-84438072D01*
X156700000Y-84438072D01*
X156824482Y-84425812D01*
X156840001Y-84421104D01*
X156840001Y-85782851D01*
X156690256Y-85682795D01*
X156501898Y-85604774D01*
X156301939Y-85565000D01*
X156098061Y-85565000D01*
X155898102Y-85604774D01*
X155709744Y-85682795D01*
X155540226Y-85796063D01*
X155480892Y-85855397D01*
X155403937Y-85740226D01*
X155259774Y-85596063D01*
X155090256Y-85482795D01*
X154901898Y-85404774D01*
X154701939Y-85365000D01*
X154498061Y-85365000D01*
X154298102Y-85404774D01*
X154109744Y-85482795D01*
X153940226Y-85596063D01*
X153796063Y-85740226D01*
X153682795Y-85909744D01*
X153604774Y-86098102D01*
X153565000Y-86298061D01*
X153565000Y-86501939D01*
X153578470Y-86569656D01*
X153500000Y-86561928D01*
X152500000Y-86561928D01*
X152375518Y-86574188D01*
X152255820Y-86610498D01*
X152145506Y-86669463D01*
X152048815Y-86748815D01*
X151969463Y-86845506D01*
X151910498Y-86955820D01*
X151874188Y-87075518D01*
X151861928Y-87200000D01*
X151861928Y-88640000D01*
X150937675Y-88640000D01*
X150935000Y-88235750D01*
X150776250Y-88077000D01*
X149927000Y-88077000D01*
X149927000Y-88097000D01*
X149673000Y-88097000D01*
X149673000Y-88077000D01*
X148327000Y-88077000D01*
X148327000Y-88097000D01*
X148073000Y-88097000D01*
X148073000Y-88077000D01*
X148053000Y-88077000D01*
X148053000Y-87823000D01*
X148073000Y-87823000D01*
X148073000Y-86723750D01*
X148327000Y-86723750D01*
X148327000Y-87823000D01*
X149673000Y-87823000D01*
X149673000Y-86723750D01*
X149927000Y-86723750D01*
X149927000Y-87823000D01*
X150776250Y-87823000D01*
X150935000Y-87664250D01*
X150938072Y-87200000D01*
X150925812Y-87075518D01*
X150889502Y-86955820D01*
X150830537Y-86845506D01*
X150751185Y-86748815D01*
X150654494Y-86669463D01*
X150544180Y-86610498D01*
X150424482Y-86574188D01*
X150300000Y-86561928D01*
X150085750Y-86565000D01*
X149927000Y-86723750D01*
X149673000Y-86723750D01*
X149514250Y-86565000D01*
X149300000Y-86561928D01*
X149175518Y-86574188D01*
X149055820Y-86610498D01*
X149000000Y-86640335D01*
X148944180Y-86610498D01*
X148824482Y-86574188D01*
X148700000Y-86561928D01*
X148485750Y-86565000D01*
X148327000Y-86723750D01*
X148073000Y-86723750D01*
X147914250Y-86565000D01*
X147700000Y-86561928D01*
X147635000Y-86568330D01*
X147635000Y-86498061D01*
X147595226Y-86298102D01*
X147517205Y-86109744D01*
X147403937Y-85940226D01*
X147259774Y-85796063D01*
X147090256Y-85682795D01*
X146901898Y-85604774D01*
X146701939Y-85565000D01*
X146498061Y-85565000D01*
X146298102Y-85604774D01*
X146109744Y-85682795D01*
X145940226Y-85796063D01*
X145880000Y-85856289D01*
X145880000Y-84396837D01*
X145975518Y-84425812D01*
X146100000Y-84438072D01*
X147100000Y-84438072D01*
X147178470Y-84430344D01*
X147165000Y-84498061D01*
X147165000Y-84701939D01*
X147204774Y-84901898D01*
X147282795Y-85090256D01*
X147396063Y-85259774D01*
X147540226Y-85403937D01*
X147709744Y-85517205D01*
X147898102Y-85595226D01*
X148098061Y-85635000D01*
X148301939Y-85635000D01*
X148501898Y-85595226D01*
X148690256Y-85517205D01*
X148859774Y-85403937D01*
X149003937Y-85259774D01*
X149117205Y-85090256D01*
X149195226Y-84901898D01*
X149235000Y-84701939D01*
X149235000Y-84498061D01*
X149221530Y-84430344D01*
X149300000Y-84438072D01*
X150300000Y-84438072D01*
X150424482Y-84425812D01*
X150544180Y-84389502D01*
X150654494Y-84330537D01*
X150751185Y-84251185D01*
X150830537Y-84154494D01*
X150889502Y-84044180D01*
X150925812Y-83924482D01*
X150938072Y-83800000D01*
X151861928Y-83800000D01*
X151874188Y-83924482D01*
X151910498Y-84044180D01*
X151969463Y-84154494D01*
X152048815Y-84251185D01*
X152145506Y-84330537D01*
X152255820Y-84389502D01*
X152375518Y-84425812D01*
X152500000Y-84438072D01*
X152714250Y-84435000D01*
X152873000Y-84276250D01*
X152873000Y-83177000D01*
X153127000Y-83177000D01*
X153127000Y-84276250D01*
X153285750Y-84435000D01*
X153500000Y-84438072D01*
X153624482Y-84425812D01*
X153744180Y-84389502D01*
X153800000Y-84359665D01*
X153855820Y-84389502D01*
X153975518Y-84425812D01*
X154100000Y-84438072D01*
X154314250Y-84435000D01*
X154473000Y-84276250D01*
X154473000Y-83177000D01*
X153127000Y-83177000D01*
X152873000Y-83177000D01*
X152023750Y-83177000D01*
X151865000Y-83335750D01*
X151861928Y-83800000D01*
X150938072Y-83800000D01*
X150938072Y-82300000D01*
X150925812Y-82175518D01*
X150889502Y-82055820D01*
X150830537Y-81945506D01*
X150751185Y-81848815D01*
X150656886Y-81771426D01*
X150751185Y-81694037D01*
X150830537Y-81597346D01*
X150889502Y-81487032D01*
X150925812Y-81367334D01*
X150938072Y-81242852D01*
X150935000Y-80778602D01*
X150776250Y-80619852D01*
X149927000Y-80619852D01*
X149927000Y-80639852D01*
X149673000Y-80639852D01*
X149673000Y-80619852D01*
X148327000Y-80619852D01*
X148327000Y-80639852D01*
X148073000Y-80639852D01*
X148073000Y-80619852D01*
X148053000Y-80619852D01*
X148053000Y-80365852D01*
X148073000Y-80365852D01*
X148073000Y-79266602D01*
X148327000Y-79266602D01*
X148327000Y-80365852D01*
X149673000Y-80365852D01*
X149673000Y-79266602D01*
X149927000Y-79266602D01*
X149927000Y-80365852D01*
X150776250Y-80365852D01*
X150935000Y-80207102D01*
X150938072Y-79742852D01*
X150925812Y-79618370D01*
X150889502Y-79498672D01*
X150830537Y-79388358D01*
X150751185Y-79291667D01*
X150654494Y-79212315D01*
X150544180Y-79153350D01*
X150424482Y-79117040D01*
X150300000Y-79104780D01*
X150085750Y-79107852D01*
X149927000Y-79266602D01*
X149673000Y-79266602D01*
X149514250Y-79107852D01*
X149300000Y-79104780D01*
X149175518Y-79117040D01*
X149055820Y-79153350D01*
X149000000Y-79183187D01*
X148944180Y-79153350D01*
X148824482Y-79117040D01*
X148700000Y-79104780D01*
X148485750Y-79107852D01*
X148327000Y-79266602D01*
X148073000Y-79266602D01*
X147914250Y-79107852D01*
X147700000Y-79104780D01*
X147575518Y-79117040D01*
X147455820Y-79153350D01*
X147400000Y-79183187D01*
X147344180Y-79153350D01*
X147224482Y-79117040D01*
X147100000Y-79104780D01*
X146100000Y-79104780D01*
X145975518Y-79117040D01*
X145880000Y-79146015D01*
X145880000Y-76939689D01*
X145975518Y-76968664D01*
X146100000Y-76980924D01*
X147100000Y-76980924D01*
X147169776Y-76974052D01*
X147165000Y-76998061D01*
X147165000Y-77201939D01*
X147204774Y-77401898D01*
X147282795Y-77590256D01*
X147396063Y-77759774D01*
X147540226Y-77903937D01*
X147709744Y-78017205D01*
X147898102Y-78095226D01*
X148098061Y-78135000D01*
X148301939Y-78135000D01*
X148501898Y-78095226D01*
X148690256Y-78017205D01*
X148859774Y-77903937D01*
X149003937Y-77759774D01*
X149117205Y-77590256D01*
X149195226Y-77401898D01*
X149235000Y-77201939D01*
X149235000Y-76998061D01*
X149230224Y-76974052D01*
X149300000Y-76980924D01*
X150300000Y-76980924D01*
X150424482Y-76968664D01*
X150544180Y-76932354D01*
X150654494Y-76873389D01*
X150751185Y-76794037D01*
X150830537Y-76697346D01*
X150889502Y-76587032D01*
X150925812Y-76467334D01*
X150938072Y-76342852D01*
X151861928Y-76342852D01*
X151874188Y-76467334D01*
X151910498Y-76587032D01*
X151969463Y-76697346D01*
X152048815Y-76794037D01*
X152145506Y-76873389D01*
X152255820Y-76932354D01*
X152375518Y-76968664D01*
X152500000Y-76980924D01*
X152714250Y-76977852D01*
X152873000Y-76819102D01*
X152873000Y-75719852D01*
X153127000Y-75719852D01*
X153127000Y-76819102D01*
X153285750Y-76977852D01*
X153500000Y-76980924D01*
X153624482Y-76968664D01*
X153744180Y-76932354D01*
X153800000Y-76902517D01*
X153855820Y-76932354D01*
X153975518Y-76968664D01*
X154100000Y-76980924D01*
X154314250Y-76977852D01*
X154473000Y-76819102D01*
X154473000Y-75719852D01*
X153127000Y-75719852D01*
X152873000Y-75719852D01*
X152023750Y-75719852D01*
X151865000Y-75878602D01*
X151861928Y-76342852D01*
X150938072Y-76342852D01*
X150938072Y-74842852D01*
X150925812Y-74718370D01*
X150889502Y-74598672D01*
X150830537Y-74488358D01*
X150751185Y-74391667D01*
X150656890Y-74314281D01*
X150751185Y-74236895D01*
X150830537Y-74140204D01*
X150889502Y-74029890D01*
X150925812Y-73910192D01*
X150938072Y-73785710D01*
X150935000Y-73321460D01*
X150776250Y-73162710D01*
X149927000Y-73162710D01*
X149927000Y-73182710D01*
X149673000Y-73182710D01*
X149673000Y-73162710D01*
X148327000Y-73162710D01*
X148327000Y-73182710D01*
X148073000Y-73182710D01*
X148073000Y-73162710D01*
X148053000Y-73162710D01*
X148053000Y-72908710D01*
X148073000Y-72908710D01*
X148073000Y-71809460D01*
X148327000Y-71809460D01*
X148327000Y-72908710D01*
X149673000Y-72908710D01*
X149673000Y-71809460D01*
X149927000Y-71809460D01*
X149927000Y-72908710D01*
X150776250Y-72908710D01*
X150935000Y-72749960D01*
X150938072Y-72285710D01*
X150925812Y-72161228D01*
X150889502Y-72041530D01*
X150830537Y-71931216D01*
X150751185Y-71834525D01*
X150654494Y-71755173D01*
X150544180Y-71696208D01*
X150424482Y-71659898D01*
X150300000Y-71647638D01*
X150085750Y-71650710D01*
X149927000Y-71809460D01*
X149673000Y-71809460D01*
X149514250Y-71650710D01*
X149300000Y-71647638D01*
X149175518Y-71659898D01*
X149055820Y-71696208D01*
X149000000Y-71726045D01*
X148944180Y-71696208D01*
X148824482Y-71659898D01*
X148700000Y-71647638D01*
X148485750Y-71650710D01*
X148327000Y-71809460D01*
X148073000Y-71809460D01*
X147914250Y-71650710D01*
X147700000Y-71647638D01*
X147575518Y-71659898D01*
X147455820Y-71696208D01*
X147400000Y-71726045D01*
X147344180Y-71696208D01*
X147224482Y-71659898D01*
X147100000Y-71647638D01*
X146100000Y-71647638D01*
X145975518Y-71659898D01*
X145880000Y-71688873D01*
X145880000Y-69482547D01*
X145975518Y-69511522D01*
X146100000Y-69523782D01*
X147100000Y-69523782D01*
X147165000Y-69517380D01*
X147165000Y-69701939D01*
X147204774Y-69901898D01*
X147282795Y-70090256D01*
X147396063Y-70259774D01*
X147540226Y-70403937D01*
X147709744Y-70517205D01*
X147898102Y-70595226D01*
X148098061Y-70635000D01*
X148301939Y-70635000D01*
X148501898Y-70595226D01*
X148690256Y-70517205D01*
X148859774Y-70403937D01*
X149003937Y-70259774D01*
X149117205Y-70090256D01*
X149195226Y-69901898D01*
X149235000Y-69701939D01*
X149235000Y-69517380D01*
X149300000Y-69523782D01*
X150300000Y-69523782D01*
X150424482Y-69511522D01*
X150544180Y-69475212D01*
X150654494Y-69416247D01*
X150751185Y-69336895D01*
X150830537Y-69240204D01*
X150889502Y-69129890D01*
X150925812Y-69010192D01*
X150938072Y-68885710D01*
X151861928Y-68885710D01*
X151874188Y-69010192D01*
X151910498Y-69129890D01*
X151969463Y-69240204D01*
X152048815Y-69336895D01*
X152145506Y-69416247D01*
X152255820Y-69475212D01*
X152375518Y-69511522D01*
X152500000Y-69523782D01*
X152714250Y-69520710D01*
X152873000Y-69361960D01*
X152873000Y-68262710D01*
X153127000Y-68262710D01*
X153127000Y-69361960D01*
X153285750Y-69520710D01*
X153500000Y-69523782D01*
X153624482Y-69511522D01*
X153744180Y-69475212D01*
X153800000Y-69445375D01*
X153855820Y-69475212D01*
X153975518Y-69511522D01*
X154100000Y-69523782D01*
X154314250Y-69520710D01*
X154473000Y-69361960D01*
X154473000Y-68262710D01*
X153127000Y-68262710D01*
X152873000Y-68262710D01*
X152023750Y-68262710D01*
X151865000Y-68421460D01*
X151861928Y-68885710D01*
X150938072Y-68885710D01*
X150938072Y-67385710D01*
X150925812Y-67261228D01*
X150889502Y-67141530D01*
X150830537Y-67031216D01*
X150751185Y-66934525D01*
X150656890Y-66857139D01*
X150751185Y-66779753D01*
X150830537Y-66683062D01*
X150889502Y-66572748D01*
X150925812Y-66453050D01*
X150938072Y-66328568D01*
X150935000Y-65864318D01*
X150776250Y-65705568D01*
X149927000Y-65705568D01*
X149927000Y-65725568D01*
X149673000Y-65725568D01*
X149673000Y-65705568D01*
X148327000Y-65705568D01*
X148327000Y-65725568D01*
X148073000Y-65725568D01*
X148073000Y-65705568D01*
X148053000Y-65705568D01*
X148053000Y-65451568D01*
X148073000Y-65451568D01*
X148073000Y-64352318D01*
X148327000Y-64352318D01*
X148327000Y-65451568D01*
X149673000Y-65451568D01*
X149673000Y-64352318D01*
X149927000Y-64352318D01*
X149927000Y-65451568D01*
X150776250Y-65451568D01*
X150935000Y-65292818D01*
X150938072Y-64828568D01*
X150925812Y-64704086D01*
X150889502Y-64584388D01*
X150830537Y-64474074D01*
X150751185Y-64377383D01*
X150654494Y-64298031D01*
X150544180Y-64239066D01*
X150424482Y-64202756D01*
X150300000Y-64190496D01*
X150085750Y-64193568D01*
X149927000Y-64352318D01*
X149673000Y-64352318D01*
X149514250Y-64193568D01*
X149300000Y-64190496D01*
X149175518Y-64202756D01*
X149055820Y-64239066D01*
X149000000Y-64268903D01*
X148944180Y-64239066D01*
X148824482Y-64202756D01*
X148700000Y-64190496D01*
X148485750Y-64193568D01*
X148327000Y-64352318D01*
X148073000Y-64352318D01*
X147914250Y-64193568D01*
X147700000Y-64190496D01*
X147575518Y-64202756D01*
X147455820Y-64239066D01*
X147400000Y-64268903D01*
X147344180Y-64239066D01*
X147224482Y-64202756D01*
X147100000Y-64190496D01*
X146100000Y-64190496D01*
X145975518Y-64202756D01*
X145880000Y-64231731D01*
X145880000Y-62025405D01*
X145975518Y-62054380D01*
X146100000Y-62066640D01*
X147100000Y-62066640D01*
X147172674Y-62059483D01*
X147165000Y-62098061D01*
X147165000Y-62301939D01*
X147204774Y-62501898D01*
X147282795Y-62690256D01*
X147396063Y-62859774D01*
X147540226Y-63003937D01*
X147709744Y-63117205D01*
X147898102Y-63195226D01*
X148098061Y-63235000D01*
X148301939Y-63235000D01*
X148501898Y-63195226D01*
X148690256Y-63117205D01*
X148859774Y-63003937D01*
X149003937Y-62859774D01*
X149117205Y-62690256D01*
X149195226Y-62501898D01*
X149235000Y-62301939D01*
X149235000Y-62098061D01*
X149227326Y-62059483D01*
X149300000Y-62066640D01*
X150300000Y-62066640D01*
X150424482Y-62054380D01*
X150544180Y-62018070D01*
X150654494Y-61959105D01*
X150751185Y-61879753D01*
X150830537Y-61783062D01*
X150889502Y-61672748D01*
X150925812Y-61553050D01*
X150938072Y-61428568D01*
X151861928Y-61428568D01*
X151874188Y-61553050D01*
X151910498Y-61672748D01*
X151969463Y-61783062D01*
X152048815Y-61879753D01*
X152145506Y-61959105D01*
X152255820Y-62018070D01*
X152375518Y-62054380D01*
X152500000Y-62066640D01*
X152714250Y-62063568D01*
X152873000Y-61904818D01*
X152873000Y-60805568D01*
X153127000Y-60805568D01*
X153127000Y-61904818D01*
X153285750Y-62063568D01*
X153500000Y-62066640D01*
X153624482Y-62054380D01*
X153744180Y-62018070D01*
X153800000Y-61988233D01*
X153855820Y-62018070D01*
X153975518Y-62054380D01*
X154100000Y-62066640D01*
X154314250Y-62063568D01*
X154473000Y-61904818D01*
X154473000Y-60805568D01*
X153127000Y-60805568D01*
X152873000Y-60805568D01*
X152023750Y-60805568D01*
X151865000Y-60964318D01*
X151861928Y-61428568D01*
X150938072Y-61428568D01*
X150938072Y-59928568D01*
X150925812Y-59804086D01*
X150889502Y-59684388D01*
X150830537Y-59574074D01*
X150751185Y-59477383D01*
X150656890Y-59399997D01*
X150751185Y-59322611D01*
X150830537Y-59225920D01*
X150889502Y-59115606D01*
X150925812Y-58995908D01*
X150938072Y-58871426D01*
X150935000Y-58407176D01*
X150776250Y-58248426D01*
X149927000Y-58248426D01*
X149927000Y-58268426D01*
X149673000Y-58268426D01*
X149673000Y-58248426D01*
X148327000Y-58248426D01*
X148327000Y-58268426D01*
X148073000Y-58268426D01*
X148073000Y-58248426D01*
X148053000Y-58248426D01*
X148053000Y-57994426D01*
X148073000Y-57994426D01*
X148073000Y-56895176D01*
X148327000Y-56895176D01*
X148327000Y-57994426D01*
X149673000Y-57994426D01*
X149673000Y-56895176D01*
X149927000Y-56895176D01*
X149927000Y-57994426D01*
X150776250Y-57994426D01*
X150935000Y-57835676D01*
X150938072Y-57371426D01*
X150925812Y-57246944D01*
X150889502Y-57127246D01*
X150830537Y-57016932D01*
X150751185Y-56920241D01*
X150654494Y-56840889D01*
X150544180Y-56781924D01*
X150424482Y-56745614D01*
X150300000Y-56733354D01*
X150085750Y-56736426D01*
X149927000Y-56895176D01*
X149673000Y-56895176D01*
X149514250Y-56736426D01*
X149300000Y-56733354D01*
X149175518Y-56745614D01*
X149055820Y-56781924D01*
X149000000Y-56811761D01*
X148944180Y-56781924D01*
X148824482Y-56745614D01*
X148700000Y-56733354D01*
X148485750Y-56736426D01*
X148327000Y-56895176D01*
X148073000Y-56895176D01*
X147914250Y-56736426D01*
X147700000Y-56733354D01*
X147575518Y-56745614D01*
X147455820Y-56781924D01*
X147400000Y-56811761D01*
X147344180Y-56781924D01*
X147224482Y-56745614D01*
X147100000Y-56733354D01*
X146100000Y-56733354D01*
X145975518Y-56745614D01*
X145880000Y-56774589D01*
X145880000Y-54568263D01*
X145975518Y-54597238D01*
X146100000Y-54609498D01*
X147100000Y-54609498D01*
X147165000Y-54603096D01*
X147165000Y-54801939D01*
X147204774Y-55001898D01*
X147282795Y-55190256D01*
X147396063Y-55359774D01*
X147540226Y-55503937D01*
X147709744Y-55617205D01*
X147898102Y-55695226D01*
X148098061Y-55735000D01*
X148301939Y-55735000D01*
X148501898Y-55695226D01*
X148690256Y-55617205D01*
X148859774Y-55503937D01*
X149003937Y-55359774D01*
X149117205Y-55190256D01*
X149195226Y-55001898D01*
X149235000Y-54801939D01*
X149235000Y-54603096D01*
X149300000Y-54609498D01*
X150300000Y-54609498D01*
X150424482Y-54597238D01*
X150544180Y-54560928D01*
X150654494Y-54501963D01*
X150751185Y-54422611D01*
X150830537Y-54325920D01*
X150889502Y-54215606D01*
X150925812Y-54095908D01*
X150938072Y-53971426D01*
X151861928Y-53971426D01*
X151874188Y-54095908D01*
X151910498Y-54215606D01*
X151969463Y-54325920D01*
X152048815Y-54422611D01*
X152145506Y-54501963D01*
X152255820Y-54560928D01*
X152375518Y-54597238D01*
X152500000Y-54609498D01*
X152714250Y-54606426D01*
X152873000Y-54447676D01*
X152873000Y-53348426D01*
X153127000Y-53348426D01*
X153127000Y-54447676D01*
X153285750Y-54606426D01*
X153500000Y-54609498D01*
X153624482Y-54597238D01*
X153744180Y-54560928D01*
X153800000Y-54531091D01*
X153855820Y-54560928D01*
X153975518Y-54597238D01*
X154100000Y-54609498D01*
X154314250Y-54606426D01*
X154473000Y-54447676D01*
X154473000Y-53348426D01*
X153127000Y-53348426D01*
X152873000Y-53348426D01*
X152023750Y-53348426D01*
X151865000Y-53507176D01*
X151861928Y-53971426D01*
X150938072Y-53971426D01*
X150938072Y-52471426D01*
X150925812Y-52346944D01*
X150889502Y-52227246D01*
X150830537Y-52116932D01*
X150751185Y-52020241D01*
X150656890Y-51942855D01*
X150751185Y-51865469D01*
X150830537Y-51768778D01*
X150889502Y-51658464D01*
X150925812Y-51538766D01*
X150938072Y-51414284D01*
X150935000Y-50950034D01*
X150776250Y-50791284D01*
X149927000Y-50791284D01*
X149927000Y-50811284D01*
X149673000Y-50811284D01*
X149673000Y-50791284D01*
X148327000Y-50791284D01*
X148327000Y-50811284D01*
X148073000Y-50811284D01*
X148073000Y-50791284D01*
X148053000Y-50791284D01*
X148053000Y-50537284D01*
X148073000Y-50537284D01*
X148073000Y-49438034D01*
X148327000Y-49438034D01*
X148327000Y-50537284D01*
X149673000Y-50537284D01*
X149673000Y-49438034D01*
X149927000Y-49438034D01*
X149927000Y-50537284D01*
X150776250Y-50537284D01*
X150935000Y-50378534D01*
X150938072Y-49914284D01*
X150925812Y-49789802D01*
X150889502Y-49670104D01*
X150830537Y-49559790D01*
X150751185Y-49463099D01*
X150654494Y-49383747D01*
X150544180Y-49324782D01*
X150424482Y-49288472D01*
X150300000Y-49276212D01*
X150085750Y-49279284D01*
X149927000Y-49438034D01*
X149673000Y-49438034D01*
X149514250Y-49279284D01*
X149300000Y-49276212D01*
X149175518Y-49288472D01*
X149055820Y-49324782D01*
X149000000Y-49354619D01*
X148944180Y-49324782D01*
X148824482Y-49288472D01*
X148700000Y-49276212D01*
X148485750Y-49279284D01*
X148327000Y-49438034D01*
X148073000Y-49438034D01*
X147914250Y-49279284D01*
X147700000Y-49276212D01*
X147575518Y-49288472D01*
X147455820Y-49324782D01*
X147400000Y-49354619D01*
X147344180Y-49324782D01*
X147224482Y-49288472D01*
X147100000Y-49276212D01*
X146100000Y-49276212D01*
X145975518Y-49288472D01*
X145880000Y-49317447D01*
X145880000Y-47111121D01*
X145975518Y-47140096D01*
X146100000Y-47152356D01*
X147100000Y-47152356D01*
X147165000Y-47145954D01*
X147165000Y-47301939D01*
X147204774Y-47501898D01*
X147282795Y-47690256D01*
X147396063Y-47859774D01*
X147540226Y-48003937D01*
X147709744Y-48117205D01*
X147898102Y-48195226D01*
X148098061Y-48235000D01*
X148301939Y-48235000D01*
X148501898Y-48195226D01*
X148690256Y-48117205D01*
X148859774Y-48003937D01*
X149003937Y-47859774D01*
X149117205Y-47690256D01*
X149195226Y-47501898D01*
X149235000Y-47301939D01*
X149235000Y-47145954D01*
X149300000Y-47152356D01*
X150300000Y-47152356D01*
X150424482Y-47140096D01*
X150544180Y-47103786D01*
X150654494Y-47044821D01*
X150751185Y-46965469D01*
X150830537Y-46868778D01*
X150889502Y-46758464D01*
X150925812Y-46638766D01*
X150938072Y-46514284D01*
X151861928Y-46514284D01*
X151874188Y-46638766D01*
X151910498Y-46758464D01*
X151969463Y-46868778D01*
X152048815Y-46965469D01*
X152145506Y-47044821D01*
X152255820Y-47103786D01*
X152375518Y-47140096D01*
X152500000Y-47152356D01*
X152714250Y-47149284D01*
X152873000Y-46990534D01*
X152873000Y-45891284D01*
X153127000Y-45891284D01*
X153127000Y-46990534D01*
X153285750Y-47149284D01*
X153500000Y-47152356D01*
X153624482Y-47140096D01*
X153744180Y-47103786D01*
X153800000Y-47073949D01*
X153855820Y-47103786D01*
X153975518Y-47140096D01*
X154100000Y-47152356D01*
X154314250Y-47149284D01*
X154473000Y-46990534D01*
X154473000Y-45891284D01*
X153127000Y-45891284D01*
X152873000Y-45891284D01*
X152023750Y-45891284D01*
X151865000Y-46050034D01*
X151861928Y-46514284D01*
X150938072Y-46514284D01*
X150938072Y-45014284D01*
X150925812Y-44889802D01*
X150889502Y-44770104D01*
X150830537Y-44659790D01*
X150751185Y-44563099D01*
X150656890Y-44485713D01*
X150751185Y-44408327D01*
X150830537Y-44311636D01*
X150889502Y-44201322D01*
X150925812Y-44081624D01*
X150938072Y-43957142D01*
X150935000Y-43492892D01*
X150776250Y-43334142D01*
X149927000Y-43334142D01*
X149927000Y-43354142D01*
X149673000Y-43354142D01*
X149673000Y-43334142D01*
X148327000Y-43334142D01*
X148327000Y-43354142D01*
X148073000Y-43354142D01*
X148073000Y-43334142D01*
X148053000Y-43334142D01*
X148053000Y-43080142D01*
X148073000Y-43080142D01*
X148073000Y-41980892D01*
X148327000Y-41980892D01*
X148327000Y-43080142D01*
X149673000Y-43080142D01*
X149673000Y-41980892D01*
X149927000Y-41980892D01*
X149927000Y-43080142D01*
X150776250Y-43080142D01*
X150935000Y-42921392D01*
X150938072Y-42457142D01*
X150925812Y-42332660D01*
X150889502Y-42212962D01*
X150830537Y-42102648D01*
X150751185Y-42005957D01*
X150654494Y-41926605D01*
X150544180Y-41867640D01*
X150424482Y-41831330D01*
X150300000Y-41819070D01*
X150085750Y-41822142D01*
X149927000Y-41980892D01*
X149673000Y-41980892D01*
X149514250Y-41822142D01*
X149300000Y-41819070D01*
X149175518Y-41831330D01*
X149055820Y-41867640D01*
X149000000Y-41897477D01*
X148944180Y-41867640D01*
X148824482Y-41831330D01*
X148700000Y-41819070D01*
X148485750Y-41822142D01*
X148327000Y-41980892D01*
X148073000Y-41980892D01*
X147914250Y-41822142D01*
X147700000Y-41819070D01*
X147575518Y-41831330D01*
X147455820Y-41867640D01*
X147400000Y-41897477D01*
X147344180Y-41867640D01*
X147224482Y-41831330D01*
X147100000Y-41819070D01*
X146100000Y-41819070D01*
X145975518Y-41831330D01*
X145880000Y-41860305D01*
X145880000Y-39653979D01*
X145975518Y-39682954D01*
X146100000Y-39695214D01*
X147100000Y-39695214D01*
X147166876Y-39688627D01*
X147165000Y-39698061D01*
X147165000Y-39901939D01*
X147204774Y-40101898D01*
X147282795Y-40290256D01*
X147396063Y-40459774D01*
X147540226Y-40603937D01*
X147709744Y-40717205D01*
X147898102Y-40795226D01*
X148098061Y-40835000D01*
X148301939Y-40835000D01*
X148501898Y-40795226D01*
X148690256Y-40717205D01*
X148859774Y-40603937D01*
X149003937Y-40459774D01*
X149117205Y-40290256D01*
X149195226Y-40101898D01*
X149235000Y-39901939D01*
X149235000Y-39698061D01*
X149233124Y-39688627D01*
X149300000Y-39695214D01*
X150300000Y-39695214D01*
X150424482Y-39682954D01*
X150544180Y-39646644D01*
X150654494Y-39587679D01*
X150751185Y-39508327D01*
X150830537Y-39411636D01*
X150889502Y-39301322D01*
X150925812Y-39181624D01*
X150938072Y-39057142D01*
X151861928Y-39057142D01*
X151874188Y-39181624D01*
X151910498Y-39301322D01*
X151969463Y-39411636D01*
X152048815Y-39508327D01*
X152145506Y-39587679D01*
X152255820Y-39646644D01*
X152375518Y-39682954D01*
X152500000Y-39695214D01*
X152714250Y-39692142D01*
X152873000Y-39533392D01*
X152873000Y-38434142D01*
X153127000Y-38434142D01*
X153127000Y-39533392D01*
X153285750Y-39692142D01*
X153500000Y-39695214D01*
X153624482Y-39682954D01*
X153744180Y-39646644D01*
X153800000Y-39616807D01*
X153855820Y-39646644D01*
X153975518Y-39682954D01*
X154100000Y-39695214D01*
X154314250Y-39692142D01*
X154473000Y-39533392D01*
X154473000Y-38434142D01*
X153127000Y-38434142D01*
X152873000Y-38434142D01*
X152023750Y-38434142D01*
X151865000Y-38592892D01*
X151861928Y-39057142D01*
X150938072Y-39057142D01*
X150938072Y-37557142D01*
X150925812Y-37432660D01*
X150889502Y-37312962D01*
X150830537Y-37202648D01*
X150751185Y-37105957D01*
X150656890Y-37028571D01*
X150751185Y-36951185D01*
X150830537Y-36854494D01*
X150889502Y-36744180D01*
X150925812Y-36624482D01*
X150938072Y-36500000D01*
X150935000Y-36035750D01*
X150776250Y-35877000D01*
X149927000Y-35877000D01*
X149927000Y-35897000D01*
X149673000Y-35897000D01*
X149673000Y-35877000D01*
X148327000Y-35877000D01*
X148327000Y-35897000D01*
X148073000Y-35897000D01*
X148073000Y-35877000D01*
X148053000Y-35877000D01*
X148053000Y-35623000D01*
X148073000Y-35623000D01*
X148073000Y-34523750D01*
X148327000Y-34523750D01*
X148327000Y-35623000D01*
X149673000Y-35623000D01*
X149673000Y-34523750D01*
X149927000Y-34523750D01*
X149927000Y-35623000D01*
X150776250Y-35623000D01*
X150935000Y-35464250D01*
X150938072Y-35000000D01*
X150925812Y-34875518D01*
X150889502Y-34755820D01*
X150830537Y-34645506D01*
X150751185Y-34548815D01*
X150654494Y-34469463D01*
X150544180Y-34410498D01*
X150424482Y-34374188D01*
X150300000Y-34361928D01*
X150085750Y-34365000D01*
X149927000Y-34523750D01*
X149673000Y-34523750D01*
X149514250Y-34365000D01*
X149300000Y-34361928D01*
X149175518Y-34374188D01*
X149055820Y-34410498D01*
X149000000Y-34440335D01*
X148944180Y-34410498D01*
X148824482Y-34374188D01*
X148700000Y-34361928D01*
X148485750Y-34365000D01*
X148327000Y-34523750D01*
X148073000Y-34523750D01*
X147914250Y-34365000D01*
X147700000Y-34361928D01*
X147575518Y-34374188D01*
X147455820Y-34410498D01*
X147400000Y-34440335D01*
X147344180Y-34410498D01*
X147224482Y-34374188D01*
X147100000Y-34361928D01*
X146100000Y-34361928D01*
X145975518Y-34374188D01*
X145880000Y-34403163D01*
X145880000Y-32477350D01*
X145904774Y-32601898D01*
X145982795Y-32790256D01*
X146096063Y-32959774D01*
X146240226Y-33103937D01*
X146409744Y-33217205D01*
X146598102Y-33295226D01*
X146798061Y-33335000D01*
X147001939Y-33335000D01*
X147201898Y-33295226D01*
X147390256Y-33217205D01*
X147488110Y-33151821D01*
X147540226Y-33203937D01*
X147709744Y-33317205D01*
X147898102Y-33395226D01*
X148098061Y-33435000D01*
X148301939Y-33435000D01*
X148501898Y-33395226D01*
X148690256Y-33317205D01*
X148859774Y-33203937D01*
X149003937Y-33059774D01*
X149117205Y-32890256D01*
X149195226Y-32701898D01*
X149235000Y-32501939D01*
X149235000Y-32298061D01*
X149221530Y-32230344D01*
X149300000Y-32238072D01*
X150300000Y-32238072D01*
X150424482Y-32225812D01*
X150544180Y-32189502D01*
X150654494Y-32130537D01*
X150751185Y-32051185D01*
X150830537Y-31954494D01*
X150889502Y-31844180D01*
X150925812Y-31724482D01*
X150938072Y-31600000D01*
X151861928Y-31600000D01*
X151874188Y-31724482D01*
X151910498Y-31844180D01*
X151969463Y-31954494D01*
X152048815Y-32051185D01*
X152145506Y-32130537D01*
X152255820Y-32189502D01*
X152375518Y-32225812D01*
X152500000Y-32238072D01*
X152714250Y-32235000D01*
X152873000Y-32076250D01*
X152873000Y-30977000D01*
X153127000Y-30977000D01*
X153127000Y-32076250D01*
X153285750Y-32235000D01*
X153500000Y-32238072D01*
X153624482Y-32225812D01*
X153744180Y-32189502D01*
X153800000Y-32159665D01*
X153855820Y-32189502D01*
X153975518Y-32225812D01*
X154100000Y-32238072D01*
X154314250Y-32235000D01*
X154473000Y-32076250D01*
X154473000Y-30977000D01*
X153127000Y-30977000D01*
X152873000Y-30977000D01*
X152023750Y-30977000D01*
X151865000Y-31135750D01*
X151861928Y-31600000D01*
X150938072Y-31600000D01*
X150938072Y-30290000D01*
X151863185Y-30290000D01*
X151865000Y-30564250D01*
G37*
X151865000Y-30564250D02*
X152023750Y-30723000D01*
X152873000Y-30723000D01*
X152873000Y-30703000D01*
X153127000Y-30703000D01*
X153127000Y-30723000D01*
X154473000Y-30723000D01*
X154473000Y-30703000D01*
X154727000Y-30703000D01*
X154727000Y-30723000D01*
X154747000Y-30723000D01*
X154747000Y-30977000D01*
X154727000Y-30977000D01*
X154727000Y-32076250D01*
X154865000Y-32214250D01*
X154865000Y-32401939D01*
X154904774Y-32601898D01*
X154982795Y-32790256D01*
X155096063Y-32959774D01*
X155240226Y-33103937D01*
X155409744Y-33217205D01*
X155598102Y-33295226D01*
X155798061Y-33335000D01*
X156001939Y-33335000D01*
X156201898Y-33295226D01*
X156390256Y-33217205D01*
X156559774Y-33103937D01*
X156703937Y-32959774D01*
X156817205Y-32790256D01*
X156840000Y-32735224D01*
X156840000Y-34378895D01*
X156824482Y-34374188D01*
X156700000Y-34361928D01*
X155700000Y-34361928D01*
X155635000Y-34368330D01*
X155635000Y-34198061D01*
X155595226Y-33998102D01*
X155517205Y-33809744D01*
X155403937Y-33640226D01*
X155259774Y-33496063D01*
X155090256Y-33382795D01*
X154901898Y-33304774D01*
X154701939Y-33265000D01*
X154498061Y-33265000D01*
X154298102Y-33304774D01*
X154109744Y-33382795D01*
X153940226Y-33496063D01*
X153796063Y-33640226D01*
X153682795Y-33809744D01*
X153604774Y-33998102D01*
X153565000Y-34198061D01*
X153565000Y-34368330D01*
X153500000Y-34361928D01*
X152500000Y-34361928D01*
X152375518Y-34374188D01*
X152255820Y-34410498D01*
X152145506Y-34469463D01*
X152048815Y-34548815D01*
X151969463Y-34645506D01*
X151910498Y-34755820D01*
X151874188Y-34875518D01*
X151861928Y-35000000D01*
X151861928Y-36500000D01*
X151874188Y-36624482D01*
X151910498Y-36744180D01*
X151969463Y-36854494D01*
X152048815Y-36951185D01*
X152143110Y-37028571D01*
X152048815Y-37105957D01*
X151969463Y-37202648D01*
X151910498Y-37312962D01*
X151874188Y-37432660D01*
X151861928Y-37557142D01*
X151865000Y-38021392D01*
X152023750Y-38180142D01*
X152873000Y-38180142D01*
X152873000Y-38160142D01*
X153127000Y-38160142D01*
X153127000Y-38180142D01*
X154473000Y-38180142D01*
X154473000Y-38160142D01*
X154727000Y-38160142D01*
X154727000Y-38180142D01*
X154747000Y-38180142D01*
X154747000Y-38434142D01*
X154727000Y-38434142D01*
X154727000Y-39533392D01*
X154885750Y-39692142D01*
X155100000Y-39695214D01*
X155224482Y-39682954D01*
X155344180Y-39646644D01*
X155400000Y-39616807D01*
X155455820Y-39646644D01*
X155575518Y-39682954D01*
X155700000Y-39695214D01*
X156700000Y-39695214D01*
X156824482Y-39682954D01*
X156840000Y-39678247D01*
X156840000Y-41836037D01*
X156824482Y-41831330D01*
X156700000Y-41819070D01*
X155700000Y-41819070D01*
X155635000Y-41825472D01*
X155635000Y-41698061D01*
X155595226Y-41498102D01*
X155517205Y-41309744D01*
X155403937Y-41140226D01*
X155259774Y-40996063D01*
X155090256Y-40882795D01*
X154901898Y-40804774D01*
X154701939Y-40765000D01*
X154498061Y-40765000D01*
X154298102Y-40804774D01*
X154109744Y-40882795D01*
X153940226Y-40996063D01*
X153796063Y-41140226D01*
X153682795Y-41309744D01*
X153604774Y-41498102D01*
X153565000Y-41698061D01*
X153565000Y-41825472D01*
X153500000Y-41819070D01*
X152500000Y-41819070D01*
X152375518Y-41831330D01*
X152255820Y-41867640D01*
X152145506Y-41926605D01*
X152048815Y-42005957D01*
X151969463Y-42102648D01*
X151910498Y-42212962D01*
X151874188Y-42332660D01*
X151861928Y-42457142D01*
X151861928Y-43957142D01*
X151874188Y-44081624D01*
X151910498Y-44201322D01*
X151969463Y-44311636D01*
X152048815Y-44408327D01*
X152143110Y-44485713D01*
X152048815Y-44563099D01*
X151969463Y-44659790D01*
X151910498Y-44770104D01*
X151874188Y-44889802D01*
X151861928Y-45014284D01*
X151865000Y-45478534D01*
X152023750Y-45637284D01*
X152873000Y-45637284D01*
X152873000Y-45617284D01*
X153127000Y-45617284D01*
X153127000Y-45637284D01*
X154473000Y-45637284D01*
X154473000Y-45617284D01*
X154727000Y-45617284D01*
X154727000Y-45637284D01*
X154747000Y-45637284D01*
X154747000Y-45891284D01*
X154727000Y-45891284D01*
X154727000Y-46990534D01*
X154885750Y-47149284D01*
X155100000Y-47152356D01*
X155224482Y-47140096D01*
X155344180Y-47103786D01*
X155400000Y-47073949D01*
X155455820Y-47103786D01*
X155575518Y-47140096D01*
X155700000Y-47152356D01*
X156700000Y-47152356D01*
X156824482Y-47140096D01*
X156840000Y-47135389D01*
X156840000Y-49293179D01*
X156824482Y-49288472D01*
X156700000Y-49276212D01*
X155700000Y-49276212D01*
X155635000Y-49282614D01*
X155635000Y-49098061D01*
X155595226Y-48898102D01*
X155517205Y-48709744D01*
X155403937Y-48540226D01*
X155259774Y-48396063D01*
X155090256Y-48282795D01*
X154901898Y-48204774D01*
X154701939Y-48165000D01*
X154498061Y-48165000D01*
X154298102Y-48204774D01*
X154109744Y-48282795D01*
X153940226Y-48396063D01*
X153796063Y-48540226D01*
X153682795Y-48709744D01*
X153604774Y-48898102D01*
X153565000Y-49098061D01*
X153565000Y-49282614D01*
X153500000Y-49276212D01*
X152500000Y-49276212D01*
X152375518Y-49288472D01*
X152255820Y-49324782D01*
X152145506Y-49383747D01*
X152048815Y-49463099D01*
X151969463Y-49559790D01*
X151910498Y-49670104D01*
X151874188Y-49789802D01*
X151861928Y-49914284D01*
X151861928Y-51414284D01*
X151874188Y-51538766D01*
X151910498Y-51658464D01*
X151969463Y-51768778D01*
X152048815Y-51865469D01*
X152143110Y-51942855D01*
X152048815Y-52020241D01*
X151969463Y-52116932D01*
X151910498Y-52227246D01*
X151874188Y-52346944D01*
X151861928Y-52471426D01*
X151865000Y-52935676D01*
X152023750Y-53094426D01*
X152873000Y-53094426D01*
X152873000Y-53074426D01*
X153127000Y-53074426D01*
X153127000Y-53094426D01*
X154473000Y-53094426D01*
X154473000Y-53074426D01*
X154727000Y-53074426D01*
X154727000Y-53094426D01*
X154747000Y-53094426D01*
X154747000Y-53348426D01*
X154727000Y-53348426D01*
X154727000Y-54447676D01*
X154885750Y-54606426D01*
X155100000Y-54609498D01*
X155224482Y-54597238D01*
X155344180Y-54560928D01*
X155400000Y-54531091D01*
X155455820Y-54560928D01*
X155575518Y-54597238D01*
X155700000Y-54609498D01*
X156700000Y-54609498D01*
X156824482Y-54597238D01*
X156840000Y-54592531D01*
X156840000Y-56750321D01*
X156824482Y-56745614D01*
X156700000Y-56733354D01*
X155700000Y-56733354D01*
X155627328Y-56740511D01*
X155635000Y-56701939D01*
X155635000Y-56498061D01*
X155595226Y-56298102D01*
X155517205Y-56109744D01*
X155403937Y-55940226D01*
X155259774Y-55796063D01*
X155090256Y-55682795D01*
X154901898Y-55604774D01*
X154701939Y-55565000D01*
X154498061Y-55565000D01*
X154298102Y-55604774D01*
X154109744Y-55682795D01*
X153940226Y-55796063D01*
X153796063Y-55940226D01*
X153682795Y-56109744D01*
X153604774Y-56298102D01*
X153565000Y-56498061D01*
X153565000Y-56701939D01*
X153572672Y-56740511D01*
X153500000Y-56733354D01*
X152500000Y-56733354D01*
X152375518Y-56745614D01*
X152255820Y-56781924D01*
X152145506Y-56840889D01*
X152048815Y-56920241D01*
X151969463Y-57016932D01*
X151910498Y-57127246D01*
X151874188Y-57246944D01*
X151861928Y-57371426D01*
X151861928Y-58871426D01*
X151874188Y-58995908D01*
X151910498Y-59115606D01*
X151969463Y-59225920D01*
X152048815Y-59322611D01*
X152143110Y-59399997D01*
X152048815Y-59477383D01*
X151969463Y-59574074D01*
X151910498Y-59684388D01*
X151874188Y-59804086D01*
X151861928Y-59928568D01*
X151865000Y-60392818D01*
X152023750Y-60551568D01*
X152873000Y-60551568D01*
X152873000Y-60531568D01*
X153127000Y-60531568D01*
X153127000Y-60551568D01*
X154473000Y-60551568D01*
X154473000Y-60531568D01*
X154727000Y-60531568D01*
X154727000Y-60551568D01*
X154747000Y-60551568D01*
X154747000Y-60805568D01*
X154727000Y-60805568D01*
X154727000Y-61904818D01*
X154885750Y-62063568D01*
X155100000Y-62066640D01*
X155224482Y-62054380D01*
X155344180Y-62018070D01*
X155400000Y-61988233D01*
X155455820Y-62018070D01*
X155575518Y-62054380D01*
X155700000Y-62066640D01*
X156700000Y-62066640D01*
X156824482Y-62054380D01*
X156840001Y-62049673D01*
X156840001Y-64207464D01*
X156824482Y-64202756D01*
X156700000Y-64190496D01*
X155700000Y-64190496D01*
X155635000Y-64196898D01*
X155635000Y-63998061D01*
X155595226Y-63798102D01*
X155517205Y-63609744D01*
X155403937Y-63440226D01*
X155259774Y-63296063D01*
X155090256Y-63182795D01*
X154901898Y-63104774D01*
X154701939Y-63065000D01*
X154498061Y-63065000D01*
X154298102Y-63104774D01*
X154109744Y-63182795D01*
X153940226Y-63296063D01*
X153796063Y-63440226D01*
X153682795Y-63609744D01*
X153604774Y-63798102D01*
X153565000Y-63998061D01*
X153565000Y-64196898D01*
X153500000Y-64190496D01*
X152500000Y-64190496D01*
X152375518Y-64202756D01*
X152255820Y-64239066D01*
X152145506Y-64298031D01*
X152048815Y-64377383D01*
X151969463Y-64474074D01*
X151910498Y-64584388D01*
X151874188Y-64704086D01*
X151861928Y-64828568D01*
X151861928Y-66328568D01*
X151874188Y-66453050D01*
X151910498Y-66572748D01*
X151969463Y-66683062D01*
X152048815Y-66779753D01*
X152143110Y-66857139D01*
X152048815Y-66934525D01*
X151969463Y-67031216D01*
X151910498Y-67141530D01*
X151874188Y-67261228D01*
X151861928Y-67385710D01*
X151865000Y-67849960D01*
X152023750Y-68008710D01*
X152873000Y-68008710D01*
X152873000Y-67988710D01*
X153127000Y-67988710D01*
X153127000Y-68008710D01*
X154473000Y-68008710D01*
X154473000Y-67988710D01*
X154727000Y-67988710D01*
X154727000Y-68008710D01*
X154747000Y-68008710D01*
X154747000Y-68262710D01*
X154727000Y-68262710D01*
X154727000Y-69361960D01*
X154885750Y-69520710D01*
X155100000Y-69523782D01*
X155224482Y-69511522D01*
X155344180Y-69475212D01*
X155400000Y-69445375D01*
X155455820Y-69475212D01*
X155575518Y-69511522D01*
X155700000Y-69523782D01*
X156700000Y-69523782D01*
X156824482Y-69511522D01*
X156840001Y-69506814D01*
X156840001Y-71664606D01*
X156824482Y-71659898D01*
X156700000Y-71647638D01*
X155700000Y-71647638D01*
X155635000Y-71654040D01*
X155635000Y-71498061D01*
X155595226Y-71298102D01*
X155517205Y-71109744D01*
X155403937Y-70940226D01*
X155259774Y-70796063D01*
X155090256Y-70682795D01*
X154901898Y-70604774D01*
X154701939Y-70565000D01*
X154498061Y-70565000D01*
X154298102Y-70604774D01*
X154109744Y-70682795D01*
X153940226Y-70796063D01*
X153796063Y-70940226D01*
X153682795Y-71109744D01*
X153604774Y-71298102D01*
X153565000Y-71498061D01*
X153565000Y-71654040D01*
X153500000Y-71647638D01*
X152500000Y-71647638D01*
X152375518Y-71659898D01*
X152255820Y-71696208D01*
X152145506Y-71755173D01*
X152048815Y-71834525D01*
X151969463Y-71931216D01*
X151910498Y-72041530D01*
X151874188Y-72161228D01*
X151861928Y-72285710D01*
X151861928Y-73785710D01*
X151874188Y-73910192D01*
X151910498Y-74029890D01*
X151969463Y-74140204D01*
X152048815Y-74236895D01*
X152143110Y-74314281D01*
X152048815Y-74391667D01*
X151969463Y-74488358D01*
X151910498Y-74598672D01*
X151874188Y-74718370D01*
X151861928Y-74842852D01*
X151865000Y-75307102D01*
X152023750Y-75465852D01*
X152873000Y-75465852D01*
X152873000Y-75445852D01*
X153127000Y-75445852D01*
X153127000Y-75465852D01*
X154473000Y-75465852D01*
X154473000Y-75445852D01*
X154727000Y-75445852D01*
X154727000Y-75465852D01*
X154747000Y-75465852D01*
X154747000Y-75719852D01*
X154727000Y-75719852D01*
X154727000Y-76819102D01*
X154885750Y-76977852D01*
X155100000Y-76980924D01*
X155224482Y-76968664D01*
X155344180Y-76932354D01*
X155400000Y-76902517D01*
X155455820Y-76932354D01*
X155575518Y-76968664D01*
X155700000Y-76980924D01*
X156700000Y-76980924D01*
X156824482Y-76968664D01*
X156840001Y-76963956D01*
X156840001Y-79121748D01*
X156824482Y-79117040D01*
X156700000Y-79104780D01*
X155700000Y-79104780D01*
X155633125Y-79111366D01*
X155635000Y-79101939D01*
X155635000Y-78898061D01*
X155595226Y-78698102D01*
X155517205Y-78509744D01*
X155403937Y-78340226D01*
X155259774Y-78196063D01*
X155090256Y-78082795D01*
X154901898Y-78004774D01*
X154701939Y-77965000D01*
X154498061Y-77965000D01*
X154298102Y-78004774D01*
X154109744Y-78082795D01*
X153940226Y-78196063D01*
X153796063Y-78340226D01*
X153682795Y-78509744D01*
X153604774Y-78698102D01*
X153565000Y-78898061D01*
X153565000Y-79101939D01*
X153566875Y-79111366D01*
X153500000Y-79104780D01*
X152500000Y-79104780D01*
X152375518Y-79117040D01*
X152255820Y-79153350D01*
X152145506Y-79212315D01*
X152048815Y-79291667D01*
X151969463Y-79388358D01*
X151910498Y-79498672D01*
X151874188Y-79618370D01*
X151861928Y-79742852D01*
X151861928Y-81242852D01*
X151874188Y-81367334D01*
X151910498Y-81487032D01*
X151969463Y-81597346D01*
X152048815Y-81694037D01*
X152143114Y-81771426D01*
X152048815Y-81848815D01*
X151969463Y-81945506D01*
X151910498Y-82055820D01*
X151874188Y-82175518D01*
X151861928Y-82300000D01*
X151865000Y-82764250D01*
X152023750Y-82923000D01*
X152873000Y-82923000D01*
X152873000Y-82903000D01*
X153127000Y-82903000D01*
X153127000Y-82923000D01*
X154473000Y-82923000D01*
X154473000Y-82903000D01*
X154727000Y-82903000D01*
X154727000Y-82923000D01*
X154747000Y-82923000D01*
X154747000Y-83177000D01*
X154727000Y-83177000D01*
X154727000Y-84276250D01*
X154885750Y-84435000D01*
X155100000Y-84438072D01*
X155224482Y-84425812D01*
X155344180Y-84389502D01*
X155400000Y-84359665D01*
X155455820Y-84389502D01*
X155575518Y-84425812D01*
X155700000Y-84438072D01*
X156700000Y-84438072D01*
X156824482Y-84425812D01*
X156840001Y-84421104D01*
X156840001Y-85782851D01*
X156690256Y-85682795D01*
X156501898Y-85604774D01*
X156301939Y-85565000D01*
X156098061Y-85565000D01*
X155898102Y-85604774D01*
X155709744Y-85682795D01*
X155540226Y-85796063D01*
X155480892Y-85855397D01*
X155403937Y-85740226D01*
X155259774Y-85596063D01*
X155090256Y-85482795D01*
X154901898Y-85404774D01*
X154701939Y-85365000D01*
X154498061Y-85365000D01*
X154298102Y-85404774D01*
X154109744Y-85482795D01*
X153940226Y-85596063D01*
X153796063Y-85740226D01*
X153682795Y-85909744D01*
X153604774Y-86098102D01*
X153565000Y-86298061D01*
X153565000Y-86501939D01*
X153578470Y-86569656D01*
X153500000Y-86561928D01*
X152500000Y-86561928D01*
X152375518Y-86574188D01*
X152255820Y-86610498D01*
X152145506Y-86669463D01*
X152048815Y-86748815D01*
X151969463Y-86845506D01*
X151910498Y-86955820D01*
X151874188Y-87075518D01*
X151861928Y-87200000D01*
X151861928Y-88640000D01*
X150937675Y-88640000D01*
X150935000Y-88235750D01*
X150776250Y-88077000D01*
X149927000Y-88077000D01*
X149927000Y-88097000D01*
X149673000Y-88097000D01*
X149673000Y-88077000D01*
X148327000Y-88077000D01*
X148327000Y-88097000D01*
X148073000Y-88097000D01*
X148073000Y-88077000D01*
X148053000Y-88077000D01*
X148053000Y-87823000D01*
X148073000Y-87823000D01*
X148073000Y-86723750D01*
X148327000Y-86723750D01*
X148327000Y-87823000D01*
X149673000Y-87823000D01*
X149673000Y-86723750D01*
X149927000Y-86723750D01*
X149927000Y-87823000D01*
X150776250Y-87823000D01*
X150935000Y-87664250D01*
X150938072Y-87200000D01*
X150925812Y-87075518D01*
X150889502Y-86955820D01*
X150830537Y-86845506D01*
X150751185Y-86748815D01*
X150654494Y-86669463D01*
X150544180Y-86610498D01*
X150424482Y-86574188D01*
X150300000Y-86561928D01*
X150085750Y-86565000D01*
X149927000Y-86723750D01*
X149673000Y-86723750D01*
X149514250Y-86565000D01*
X149300000Y-86561928D01*
X149175518Y-86574188D01*
X149055820Y-86610498D01*
X149000000Y-86640335D01*
X148944180Y-86610498D01*
X148824482Y-86574188D01*
X148700000Y-86561928D01*
X148485750Y-86565000D01*
X148327000Y-86723750D01*
X148073000Y-86723750D01*
X147914250Y-86565000D01*
X147700000Y-86561928D01*
X147635000Y-86568330D01*
X147635000Y-86498061D01*
X147595226Y-86298102D01*
X147517205Y-86109744D01*
X147403937Y-85940226D01*
X147259774Y-85796063D01*
X147090256Y-85682795D01*
X146901898Y-85604774D01*
X146701939Y-85565000D01*
X146498061Y-85565000D01*
X146298102Y-85604774D01*
X146109744Y-85682795D01*
X145940226Y-85796063D01*
X145880000Y-85856289D01*
X145880000Y-84396837D01*
X145975518Y-84425812D01*
X146100000Y-84438072D01*
X147100000Y-84438072D01*
X147178470Y-84430344D01*
X147165000Y-84498061D01*
X147165000Y-84701939D01*
X147204774Y-84901898D01*
X147282795Y-85090256D01*
X147396063Y-85259774D01*
X147540226Y-85403937D01*
X147709744Y-85517205D01*
X147898102Y-85595226D01*
X148098061Y-85635000D01*
X148301939Y-85635000D01*
X148501898Y-85595226D01*
X148690256Y-85517205D01*
X148859774Y-85403937D01*
X149003937Y-85259774D01*
X149117205Y-85090256D01*
X149195226Y-84901898D01*
X149235000Y-84701939D01*
X149235000Y-84498061D01*
X149221530Y-84430344D01*
X149300000Y-84438072D01*
X150300000Y-84438072D01*
X150424482Y-84425812D01*
X150544180Y-84389502D01*
X150654494Y-84330537D01*
X150751185Y-84251185D01*
X150830537Y-84154494D01*
X150889502Y-84044180D01*
X150925812Y-83924482D01*
X150938072Y-83800000D01*
X151861928Y-83800000D01*
X151874188Y-83924482D01*
X151910498Y-84044180D01*
X151969463Y-84154494D01*
X152048815Y-84251185D01*
X152145506Y-84330537D01*
X152255820Y-84389502D01*
X152375518Y-84425812D01*
X152500000Y-84438072D01*
X152714250Y-84435000D01*
X152873000Y-84276250D01*
X152873000Y-83177000D01*
X153127000Y-83177000D01*
X153127000Y-84276250D01*
X153285750Y-84435000D01*
X153500000Y-84438072D01*
X153624482Y-84425812D01*
X153744180Y-84389502D01*
X153800000Y-84359665D01*
X153855820Y-84389502D01*
X153975518Y-84425812D01*
X154100000Y-84438072D01*
X154314250Y-84435000D01*
X154473000Y-84276250D01*
X154473000Y-83177000D01*
X153127000Y-83177000D01*
X152873000Y-83177000D01*
X152023750Y-83177000D01*
X151865000Y-83335750D01*
X151861928Y-83800000D01*
X150938072Y-83800000D01*
X150938072Y-82300000D01*
X150925812Y-82175518D01*
X150889502Y-82055820D01*
X150830537Y-81945506D01*
X150751185Y-81848815D01*
X150656886Y-81771426D01*
X150751185Y-81694037D01*
X150830537Y-81597346D01*
X150889502Y-81487032D01*
X150925812Y-81367334D01*
X150938072Y-81242852D01*
X150935000Y-80778602D01*
X150776250Y-80619852D01*
X149927000Y-80619852D01*
X149927000Y-80639852D01*
X149673000Y-80639852D01*
X149673000Y-80619852D01*
X148327000Y-80619852D01*
X148327000Y-80639852D01*
X148073000Y-80639852D01*
X148073000Y-80619852D01*
X148053000Y-80619852D01*
X148053000Y-80365852D01*
X148073000Y-80365852D01*
X148073000Y-79266602D01*
X148327000Y-79266602D01*
X148327000Y-80365852D01*
X149673000Y-80365852D01*
X149673000Y-79266602D01*
X149927000Y-79266602D01*
X149927000Y-80365852D01*
X150776250Y-80365852D01*
X150935000Y-80207102D01*
X150938072Y-79742852D01*
X150925812Y-79618370D01*
X150889502Y-79498672D01*
X150830537Y-79388358D01*
X150751185Y-79291667D01*
X150654494Y-79212315D01*
X150544180Y-79153350D01*
X150424482Y-79117040D01*
X150300000Y-79104780D01*
X150085750Y-79107852D01*
X149927000Y-79266602D01*
X149673000Y-79266602D01*
X149514250Y-79107852D01*
X149300000Y-79104780D01*
X149175518Y-79117040D01*
X149055820Y-79153350D01*
X149000000Y-79183187D01*
X148944180Y-79153350D01*
X148824482Y-79117040D01*
X148700000Y-79104780D01*
X148485750Y-79107852D01*
X148327000Y-79266602D01*
X148073000Y-79266602D01*
X147914250Y-79107852D01*
X147700000Y-79104780D01*
X147575518Y-79117040D01*
X147455820Y-79153350D01*
X147400000Y-79183187D01*
X147344180Y-79153350D01*
X147224482Y-79117040D01*
X147100000Y-79104780D01*
X146100000Y-79104780D01*
X145975518Y-79117040D01*
X145880000Y-79146015D01*
X145880000Y-76939689D01*
X145975518Y-76968664D01*
X146100000Y-76980924D01*
X147100000Y-76980924D01*
X147169776Y-76974052D01*
X147165000Y-76998061D01*
X147165000Y-77201939D01*
X147204774Y-77401898D01*
X147282795Y-77590256D01*
X147396063Y-77759774D01*
X147540226Y-77903937D01*
X147709744Y-78017205D01*
X147898102Y-78095226D01*
X148098061Y-78135000D01*
X148301939Y-78135000D01*
X148501898Y-78095226D01*
X148690256Y-78017205D01*
X148859774Y-77903937D01*
X149003937Y-77759774D01*
X149117205Y-77590256D01*
X149195226Y-77401898D01*
X149235000Y-77201939D01*
X149235000Y-76998061D01*
X149230224Y-76974052D01*
X149300000Y-76980924D01*
X150300000Y-76980924D01*
X150424482Y-76968664D01*
X150544180Y-76932354D01*
X150654494Y-76873389D01*
X150751185Y-76794037D01*
X150830537Y-76697346D01*
X150889502Y-76587032D01*
X150925812Y-76467334D01*
X150938072Y-76342852D01*
X151861928Y-76342852D01*
X151874188Y-76467334D01*
X151910498Y-76587032D01*
X151969463Y-76697346D01*
X152048815Y-76794037D01*
X152145506Y-76873389D01*
X152255820Y-76932354D01*
X152375518Y-76968664D01*
X152500000Y-76980924D01*
X152714250Y-76977852D01*
X152873000Y-76819102D01*
X152873000Y-75719852D01*
X153127000Y-75719852D01*
X153127000Y-76819102D01*
X153285750Y-76977852D01*
X153500000Y-76980924D01*
X153624482Y-76968664D01*
X153744180Y-76932354D01*
X153800000Y-76902517D01*
X153855820Y-76932354D01*
X153975518Y-76968664D01*
X154100000Y-76980924D01*
X154314250Y-76977852D01*
X154473000Y-76819102D01*
X154473000Y-75719852D01*
X153127000Y-75719852D01*
X152873000Y-75719852D01*
X152023750Y-75719852D01*
X151865000Y-75878602D01*
X151861928Y-76342852D01*
X150938072Y-76342852D01*
X150938072Y-74842852D01*
X150925812Y-74718370D01*
X150889502Y-74598672D01*
X150830537Y-74488358D01*
X150751185Y-74391667D01*
X150656890Y-74314281D01*
X150751185Y-74236895D01*
X150830537Y-74140204D01*
X150889502Y-74029890D01*
X150925812Y-73910192D01*
X150938072Y-73785710D01*
X150935000Y-73321460D01*
X150776250Y-73162710D01*
X149927000Y-73162710D01*
X149927000Y-73182710D01*
X149673000Y-73182710D01*
X149673000Y-73162710D01*
X148327000Y-73162710D01*
X148327000Y-73182710D01*
X148073000Y-73182710D01*
X148073000Y-73162710D01*
X148053000Y-73162710D01*
X148053000Y-72908710D01*
X148073000Y-72908710D01*
X148073000Y-71809460D01*
X148327000Y-71809460D01*
X148327000Y-72908710D01*
X149673000Y-72908710D01*
X149673000Y-71809460D01*
X149927000Y-71809460D01*
X149927000Y-72908710D01*
X150776250Y-72908710D01*
X150935000Y-72749960D01*
X150938072Y-72285710D01*
X150925812Y-72161228D01*
X150889502Y-72041530D01*
X150830537Y-71931216D01*
X150751185Y-71834525D01*
X150654494Y-71755173D01*
X150544180Y-71696208D01*
X150424482Y-71659898D01*
X150300000Y-71647638D01*
X150085750Y-71650710D01*
X149927000Y-71809460D01*
X149673000Y-71809460D01*
X149514250Y-71650710D01*
X149300000Y-71647638D01*
X149175518Y-71659898D01*
X149055820Y-71696208D01*
X149000000Y-71726045D01*
X148944180Y-71696208D01*
X148824482Y-71659898D01*
X148700000Y-71647638D01*
X148485750Y-71650710D01*
X148327000Y-71809460D01*
X148073000Y-71809460D01*
X147914250Y-71650710D01*
X147700000Y-71647638D01*
X147575518Y-71659898D01*
X147455820Y-71696208D01*
X147400000Y-71726045D01*
X147344180Y-71696208D01*
X147224482Y-71659898D01*
X147100000Y-71647638D01*
X146100000Y-71647638D01*
X145975518Y-71659898D01*
X145880000Y-71688873D01*
X145880000Y-69482547D01*
X145975518Y-69511522D01*
X146100000Y-69523782D01*
X147100000Y-69523782D01*
X147165000Y-69517380D01*
X147165000Y-69701939D01*
X147204774Y-69901898D01*
X147282795Y-70090256D01*
X147396063Y-70259774D01*
X147540226Y-70403937D01*
X147709744Y-70517205D01*
X147898102Y-70595226D01*
X148098061Y-70635000D01*
X148301939Y-70635000D01*
X148501898Y-70595226D01*
X148690256Y-70517205D01*
X148859774Y-70403937D01*
X149003937Y-70259774D01*
X149117205Y-70090256D01*
X149195226Y-69901898D01*
X149235000Y-69701939D01*
X149235000Y-69517380D01*
X149300000Y-69523782D01*
X150300000Y-69523782D01*
X150424482Y-69511522D01*
X150544180Y-69475212D01*
X150654494Y-69416247D01*
X150751185Y-69336895D01*
X150830537Y-69240204D01*
X150889502Y-69129890D01*
X150925812Y-69010192D01*
X150938072Y-68885710D01*
X151861928Y-68885710D01*
X151874188Y-69010192D01*
X151910498Y-69129890D01*
X151969463Y-69240204D01*
X152048815Y-69336895D01*
X152145506Y-69416247D01*
X152255820Y-69475212D01*
X152375518Y-69511522D01*
X152500000Y-69523782D01*
X152714250Y-69520710D01*
X152873000Y-69361960D01*
X152873000Y-68262710D01*
X153127000Y-68262710D01*
X153127000Y-69361960D01*
X153285750Y-69520710D01*
X153500000Y-69523782D01*
X153624482Y-69511522D01*
X153744180Y-69475212D01*
X153800000Y-69445375D01*
X153855820Y-69475212D01*
X153975518Y-69511522D01*
X154100000Y-69523782D01*
X154314250Y-69520710D01*
X154473000Y-69361960D01*
X154473000Y-68262710D01*
X153127000Y-68262710D01*
X152873000Y-68262710D01*
X152023750Y-68262710D01*
X151865000Y-68421460D01*
X151861928Y-68885710D01*
X150938072Y-68885710D01*
X150938072Y-67385710D01*
X150925812Y-67261228D01*
X150889502Y-67141530D01*
X150830537Y-67031216D01*
X150751185Y-66934525D01*
X150656890Y-66857139D01*
X150751185Y-66779753D01*
X150830537Y-66683062D01*
X150889502Y-66572748D01*
X150925812Y-66453050D01*
X150938072Y-66328568D01*
X150935000Y-65864318D01*
X150776250Y-65705568D01*
X149927000Y-65705568D01*
X149927000Y-65725568D01*
X149673000Y-65725568D01*
X149673000Y-65705568D01*
X148327000Y-65705568D01*
X148327000Y-65725568D01*
X148073000Y-65725568D01*
X148073000Y-65705568D01*
X148053000Y-65705568D01*
X148053000Y-65451568D01*
X148073000Y-65451568D01*
X148073000Y-64352318D01*
X148327000Y-64352318D01*
X148327000Y-65451568D01*
X149673000Y-65451568D01*
X149673000Y-64352318D01*
X149927000Y-64352318D01*
X149927000Y-65451568D01*
X150776250Y-65451568D01*
X150935000Y-65292818D01*
X150938072Y-64828568D01*
X150925812Y-64704086D01*
X150889502Y-64584388D01*
X150830537Y-64474074D01*
X150751185Y-64377383D01*
X150654494Y-64298031D01*
X150544180Y-64239066D01*
X150424482Y-64202756D01*
X150300000Y-64190496D01*
X150085750Y-64193568D01*
X149927000Y-64352318D01*
X149673000Y-64352318D01*
X149514250Y-64193568D01*
X149300000Y-64190496D01*
X149175518Y-64202756D01*
X149055820Y-64239066D01*
X149000000Y-64268903D01*
X148944180Y-64239066D01*
X148824482Y-64202756D01*
X148700000Y-64190496D01*
X148485750Y-64193568D01*
X148327000Y-64352318D01*
X148073000Y-64352318D01*
X147914250Y-64193568D01*
X147700000Y-64190496D01*
X147575518Y-64202756D01*
X147455820Y-64239066D01*
X147400000Y-64268903D01*
X147344180Y-64239066D01*
X147224482Y-64202756D01*
X147100000Y-64190496D01*
X146100000Y-64190496D01*
X145975518Y-64202756D01*
X145880000Y-64231731D01*
X145880000Y-62025405D01*
X145975518Y-62054380D01*
X146100000Y-62066640D01*
X147100000Y-62066640D01*
X147172674Y-62059483D01*
X147165000Y-62098061D01*
X147165000Y-62301939D01*
X147204774Y-62501898D01*
X147282795Y-62690256D01*
X147396063Y-62859774D01*
X147540226Y-63003937D01*
X147709744Y-63117205D01*
X147898102Y-63195226D01*
X148098061Y-63235000D01*
X148301939Y-63235000D01*
X148501898Y-63195226D01*
X148690256Y-63117205D01*
X148859774Y-63003937D01*
X149003937Y-62859774D01*
X149117205Y-62690256D01*
X149195226Y-62501898D01*
X149235000Y-62301939D01*
X149235000Y-62098061D01*
X149227326Y-62059483D01*
X149300000Y-62066640D01*
X150300000Y-62066640D01*
X150424482Y-62054380D01*
X150544180Y-62018070D01*
X150654494Y-61959105D01*
X150751185Y-61879753D01*
X150830537Y-61783062D01*
X150889502Y-61672748D01*
X150925812Y-61553050D01*
X150938072Y-61428568D01*
X151861928Y-61428568D01*
X151874188Y-61553050D01*
X151910498Y-61672748D01*
X151969463Y-61783062D01*
X152048815Y-61879753D01*
X152145506Y-61959105D01*
X152255820Y-62018070D01*
X152375518Y-62054380D01*
X152500000Y-62066640D01*
X152714250Y-62063568D01*
X152873000Y-61904818D01*
X152873000Y-60805568D01*
X153127000Y-60805568D01*
X153127000Y-61904818D01*
X153285750Y-62063568D01*
X153500000Y-62066640D01*
X153624482Y-62054380D01*
X153744180Y-62018070D01*
X153800000Y-61988233D01*
X153855820Y-62018070D01*
X153975518Y-62054380D01*
X154100000Y-62066640D01*
X154314250Y-62063568D01*
X154473000Y-61904818D01*
X154473000Y-60805568D01*
X153127000Y-60805568D01*
X152873000Y-60805568D01*
X152023750Y-60805568D01*
X151865000Y-60964318D01*
X151861928Y-61428568D01*
X150938072Y-61428568D01*
X150938072Y-59928568D01*
X150925812Y-59804086D01*
X150889502Y-59684388D01*
X150830537Y-59574074D01*
X150751185Y-59477383D01*
X150656890Y-59399997D01*
X150751185Y-59322611D01*
X150830537Y-59225920D01*
X150889502Y-59115606D01*
X150925812Y-58995908D01*
X150938072Y-58871426D01*
X150935000Y-58407176D01*
X150776250Y-58248426D01*
X149927000Y-58248426D01*
X149927000Y-58268426D01*
X149673000Y-58268426D01*
X149673000Y-58248426D01*
X148327000Y-58248426D01*
X148327000Y-58268426D01*
X148073000Y-58268426D01*
X148073000Y-58248426D01*
X148053000Y-58248426D01*
X148053000Y-57994426D01*
X148073000Y-57994426D01*
X148073000Y-56895176D01*
X148327000Y-56895176D01*
X148327000Y-57994426D01*
X149673000Y-57994426D01*
X149673000Y-56895176D01*
X149927000Y-56895176D01*
X149927000Y-57994426D01*
X150776250Y-57994426D01*
X150935000Y-57835676D01*
X150938072Y-57371426D01*
X150925812Y-57246944D01*
X150889502Y-57127246D01*
X150830537Y-57016932D01*
X150751185Y-56920241D01*
X150654494Y-56840889D01*
X150544180Y-56781924D01*
X150424482Y-56745614D01*
X150300000Y-56733354D01*
X150085750Y-56736426D01*
X149927000Y-56895176D01*
X149673000Y-56895176D01*
X149514250Y-56736426D01*
X149300000Y-56733354D01*
X149175518Y-56745614D01*
X149055820Y-56781924D01*
X149000000Y-56811761D01*
X148944180Y-56781924D01*
X148824482Y-56745614D01*
X148700000Y-56733354D01*
X148485750Y-56736426D01*
X148327000Y-56895176D01*
X148073000Y-56895176D01*
X147914250Y-56736426D01*
X147700000Y-56733354D01*
X147575518Y-56745614D01*
X147455820Y-56781924D01*
X147400000Y-56811761D01*
X147344180Y-56781924D01*
X147224482Y-56745614D01*
X147100000Y-56733354D01*
X146100000Y-56733354D01*
X145975518Y-56745614D01*
X145880000Y-56774589D01*
X145880000Y-54568263D01*
X145975518Y-54597238D01*
X146100000Y-54609498D01*
X147100000Y-54609498D01*
X147165000Y-54603096D01*
X147165000Y-54801939D01*
X147204774Y-55001898D01*
X147282795Y-55190256D01*
X147396063Y-55359774D01*
X147540226Y-55503937D01*
X147709744Y-55617205D01*
X147898102Y-55695226D01*
X148098061Y-55735000D01*
X148301939Y-55735000D01*
X148501898Y-55695226D01*
X148690256Y-55617205D01*
X148859774Y-55503937D01*
X149003937Y-55359774D01*
X149117205Y-55190256D01*
X149195226Y-55001898D01*
X149235000Y-54801939D01*
X149235000Y-54603096D01*
X149300000Y-54609498D01*
X150300000Y-54609498D01*
X150424482Y-54597238D01*
X150544180Y-54560928D01*
X150654494Y-54501963D01*
X150751185Y-54422611D01*
X150830537Y-54325920D01*
X150889502Y-54215606D01*
X150925812Y-54095908D01*
X150938072Y-53971426D01*
X151861928Y-53971426D01*
X151874188Y-54095908D01*
X151910498Y-54215606D01*
X151969463Y-54325920D01*
X152048815Y-54422611D01*
X152145506Y-54501963D01*
X152255820Y-54560928D01*
X152375518Y-54597238D01*
X152500000Y-54609498D01*
X152714250Y-54606426D01*
X152873000Y-54447676D01*
X152873000Y-53348426D01*
X153127000Y-53348426D01*
X153127000Y-54447676D01*
X153285750Y-54606426D01*
X153500000Y-54609498D01*
X153624482Y-54597238D01*
X153744180Y-54560928D01*
X153800000Y-54531091D01*
X153855820Y-54560928D01*
X153975518Y-54597238D01*
X154100000Y-54609498D01*
X154314250Y-54606426D01*
X154473000Y-54447676D01*
X154473000Y-53348426D01*
X153127000Y-53348426D01*
X152873000Y-53348426D01*
X152023750Y-53348426D01*
X151865000Y-53507176D01*
X151861928Y-53971426D01*
X150938072Y-53971426D01*
X150938072Y-52471426D01*
X150925812Y-52346944D01*
X150889502Y-52227246D01*
X150830537Y-52116932D01*
X150751185Y-52020241D01*
X150656890Y-51942855D01*
X150751185Y-51865469D01*
X150830537Y-51768778D01*
X150889502Y-51658464D01*
X150925812Y-51538766D01*
X150938072Y-51414284D01*
X150935000Y-50950034D01*
X150776250Y-50791284D01*
X149927000Y-50791284D01*
X149927000Y-50811284D01*
X149673000Y-50811284D01*
X149673000Y-50791284D01*
X148327000Y-50791284D01*
X148327000Y-50811284D01*
X148073000Y-50811284D01*
X148073000Y-50791284D01*
X148053000Y-50791284D01*
X148053000Y-50537284D01*
X148073000Y-50537284D01*
X148073000Y-49438034D01*
X148327000Y-49438034D01*
X148327000Y-50537284D01*
X149673000Y-50537284D01*
X149673000Y-49438034D01*
X149927000Y-49438034D01*
X149927000Y-50537284D01*
X150776250Y-50537284D01*
X150935000Y-50378534D01*
X150938072Y-49914284D01*
X150925812Y-49789802D01*
X150889502Y-49670104D01*
X150830537Y-49559790D01*
X150751185Y-49463099D01*
X150654494Y-49383747D01*
X150544180Y-49324782D01*
X150424482Y-49288472D01*
X150300000Y-49276212D01*
X150085750Y-49279284D01*
X149927000Y-49438034D01*
X149673000Y-49438034D01*
X149514250Y-49279284D01*
X149300000Y-49276212D01*
X149175518Y-49288472D01*
X149055820Y-49324782D01*
X149000000Y-49354619D01*
X148944180Y-49324782D01*
X148824482Y-49288472D01*
X148700000Y-49276212D01*
X148485750Y-49279284D01*
X148327000Y-49438034D01*
X148073000Y-49438034D01*
X147914250Y-49279284D01*
X147700000Y-49276212D01*
X147575518Y-49288472D01*
X147455820Y-49324782D01*
X147400000Y-49354619D01*
X147344180Y-49324782D01*
X147224482Y-49288472D01*
X147100000Y-49276212D01*
X146100000Y-49276212D01*
X145975518Y-49288472D01*
X145880000Y-49317447D01*
X145880000Y-47111121D01*
X145975518Y-47140096D01*
X146100000Y-47152356D01*
X147100000Y-47152356D01*
X147165000Y-47145954D01*
X147165000Y-47301939D01*
X147204774Y-47501898D01*
X147282795Y-47690256D01*
X147396063Y-47859774D01*
X147540226Y-48003937D01*
X147709744Y-48117205D01*
X147898102Y-48195226D01*
X148098061Y-48235000D01*
X148301939Y-48235000D01*
X148501898Y-48195226D01*
X148690256Y-48117205D01*
X148859774Y-48003937D01*
X149003937Y-47859774D01*
X149117205Y-47690256D01*
X149195226Y-47501898D01*
X149235000Y-47301939D01*
X149235000Y-47145954D01*
X149300000Y-47152356D01*
X150300000Y-47152356D01*
X150424482Y-47140096D01*
X150544180Y-47103786D01*
X150654494Y-47044821D01*
X150751185Y-46965469D01*
X150830537Y-46868778D01*
X150889502Y-46758464D01*
X150925812Y-46638766D01*
X150938072Y-46514284D01*
X151861928Y-46514284D01*
X151874188Y-46638766D01*
X151910498Y-46758464D01*
X151969463Y-46868778D01*
X152048815Y-46965469D01*
X152145506Y-47044821D01*
X152255820Y-47103786D01*
X152375518Y-47140096D01*
X152500000Y-47152356D01*
X152714250Y-47149284D01*
X152873000Y-46990534D01*
X152873000Y-45891284D01*
X153127000Y-45891284D01*
X153127000Y-46990534D01*
X153285750Y-47149284D01*
X153500000Y-47152356D01*
X153624482Y-47140096D01*
X153744180Y-47103786D01*
X153800000Y-47073949D01*
X153855820Y-47103786D01*
X153975518Y-47140096D01*
X154100000Y-47152356D01*
X154314250Y-47149284D01*
X154473000Y-46990534D01*
X154473000Y-45891284D01*
X153127000Y-45891284D01*
X152873000Y-45891284D01*
X152023750Y-45891284D01*
X151865000Y-46050034D01*
X151861928Y-46514284D01*
X150938072Y-46514284D01*
X150938072Y-45014284D01*
X150925812Y-44889802D01*
X150889502Y-44770104D01*
X150830537Y-44659790D01*
X150751185Y-44563099D01*
X150656890Y-44485713D01*
X150751185Y-44408327D01*
X150830537Y-44311636D01*
X150889502Y-44201322D01*
X150925812Y-44081624D01*
X150938072Y-43957142D01*
X150935000Y-43492892D01*
X150776250Y-43334142D01*
X149927000Y-43334142D01*
X149927000Y-43354142D01*
X149673000Y-43354142D01*
X149673000Y-43334142D01*
X148327000Y-43334142D01*
X148327000Y-43354142D01*
X148073000Y-43354142D01*
X148073000Y-43334142D01*
X148053000Y-43334142D01*
X148053000Y-43080142D01*
X148073000Y-43080142D01*
X148073000Y-41980892D01*
X148327000Y-41980892D01*
X148327000Y-43080142D01*
X149673000Y-43080142D01*
X149673000Y-41980892D01*
X149927000Y-41980892D01*
X149927000Y-43080142D01*
X150776250Y-43080142D01*
X150935000Y-42921392D01*
X150938072Y-42457142D01*
X150925812Y-42332660D01*
X150889502Y-42212962D01*
X150830537Y-42102648D01*
X150751185Y-42005957D01*
X150654494Y-41926605D01*
X150544180Y-41867640D01*
X150424482Y-41831330D01*
X150300000Y-41819070D01*
X150085750Y-41822142D01*
X149927000Y-41980892D01*
X149673000Y-41980892D01*
X149514250Y-41822142D01*
X149300000Y-41819070D01*
X149175518Y-41831330D01*
X149055820Y-41867640D01*
X149000000Y-41897477D01*
X148944180Y-41867640D01*
X148824482Y-41831330D01*
X148700000Y-41819070D01*
X148485750Y-41822142D01*
X148327000Y-41980892D01*
X148073000Y-41980892D01*
X147914250Y-41822142D01*
X147700000Y-41819070D01*
X147575518Y-41831330D01*
X147455820Y-41867640D01*
X147400000Y-41897477D01*
X147344180Y-41867640D01*
X147224482Y-41831330D01*
X147100000Y-41819070D01*
X146100000Y-41819070D01*
X145975518Y-41831330D01*
X145880000Y-41860305D01*
X145880000Y-39653979D01*
X145975518Y-39682954D01*
X146100000Y-39695214D01*
X147100000Y-39695214D01*
X147166876Y-39688627D01*
X147165000Y-39698061D01*
X147165000Y-39901939D01*
X147204774Y-40101898D01*
X147282795Y-40290256D01*
X147396063Y-40459774D01*
X147540226Y-40603937D01*
X147709744Y-40717205D01*
X147898102Y-40795226D01*
X148098061Y-40835000D01*
X148301939Y-40835000D01*
X148501898Y-40795226D01*
X148690256Y-40717205D01*
X148859774Y-40603937D01*
X149003937Y-40459774D01*
X149117205Y-40290256D01*
X149195226Y-40101898D01*
X149235000Y-39901939D01*
X149235000Y-39698061D01*
X149233124Y-39688627D01*
X149300000Y-39695214D01*
X150300000Y-39695214D01*
X150424482Y-39682954D01*
X150544180Y-39646644D01*
X150654494Y-39587679D01*
X150751185Y-39508327D01*
X150830537Y-39411636D01*
X150889502Y-39301322D01*
X150925812Y-39181624D01*
X150938072Y-39057142D01*
X151861928Y-39057142D01*
X151874188Y-39181624D01*
X151910498Y-39301322D01*
X151969463Y-39411636D01*
X152048815Y-39508327D01*
X152145506Y-39587679D01*
X152255820Y-39646644D01*
X152375518Y-39682954D01*
X152500000Y-39695214D01*
X152714250Y-39692142D01*
X152873000Y-39533392D01*
X152873000Y-38434142D01*
X153127000Y-38434142D01*
X153127000Y-39533392D01*
X153285750Y-39692142D01*
X153500000Y-39695214D01*
X153624482Y-39682954D01*
X153744180Y-39646644D01*
X153800000Y-39616807D01*
X153855820Y-39646644D01*
X153975518Y-39682954D01*
X154100000Y-39695214D01*
X154314250Y-39692142D01*
X154473000Y-39533392D01*
X154473000Y-38434142D01*
X153127000Y-38434142D01*
X152873000Y-38434142D01*
X152023750Y-38434142D01*
X151865000Y-38592892D01*
X151861928Y-39057142D01*
X150938072Y-39057142D01*
X150938072Y-37557142D01*
X150925812Y-37432660D01*
X150889502Y-37312962D01*
X150830537Y-37202648D01*
X150751185Y-37105957D01*
X150656890Y-37028571D01*
X150751185Y-36951185D01*
X150830537Y-36854494D01*
X150889502Y-36744180D01*
X150925812Y-36624482D01*
X150938072Y-36500000D01*
X150935000Y-36035750D01*
X150776250Y-35877000D01*
X149927000Y-35877000D01*
X149927000Y-35897000D01*
X149673000Y-35897000D01*
X149673000Y-35877000D01*
X148327000Y-35877000D01*
X148327000Y-35897000D01*
X148073000Y-35897000D01*
X148073000Y-35877000D01*
X148053000Y-35877000D01*
X148053000Y-35623000D01*
X148073000Y-35623000D01*
X148073000Y-34523750D01*
X148327000Y-34523750D01*
X148327000Y-35623000D01*
X149673000Y-35623000D01*
X149673000Y-34523750D01*
X149927000Y-34523750D01*
X149927000Y-35623000D01*
X150776250Y-35623000D01*
X150935000Y-35464250D01*
X150938072Y-35000000D01*
X150925812Y-34875518D01*
X150889502Y-34755820D01*
X150830537Y-34645506D01*
X150751185Y-34548815D01*
X150654494Y-34469463D01*
X150544180Y-34410498D01*
X150424482Y-34374188D01*
X150300000Y-34361928D01*
X150085750Y-34365000D01*
X149927000Y-34523750D01*
X149673000Y-34523750D01*
X149514250Y-34365000D01*
X149300000Y-34361928D01*
X149175518Y-34374188D01*
X149055820Y-34410498D01*
X149000000Y-34440335D01*
X148944180Y-34410498D01*
X148824482Y-34374188D01*
X148700000Y-34361928D01*
X148485750Y-34365000D01*
X148327000Y-34523750D01*
X148073000Y-34523750D01*
X147914250Y-34365000D01*
X147700000Y-34361928D01*
X147575518Y-34374188D01*
X147455820Y-34410498D01*
X147400000Y-34440335D01*
X147344180Y-34410498D01*
X147224482Y-34374188D01*
X147100000Y-34361928D01*
X146100000Y-34361928D01*
X145975518Y-34374188D01*
X145880000Y-34403163D01*
X145880000Y-32477350D01*
X145904774Y-32601898D01*
X145982795Y-32790256D01*
X146096063Y-32959774D01*
X146240226Y-33103937D01*
X146409744Y-33217205D01*
X146598102Y-33295226D01*
X146798061Y-33335000D01*
X147001939Y-33335000D01*
X147201898Y-33295226D01*
X147390256Y-33217205D01*
X147488110Y-33151821D01*
X147540226Y-33203937D01*
X147709744Y-33317205D01*
X147898102Y-33395226D01*
X148098061Y-33435000D01*
X148301939Y-33435000D01*
X148501898Y-33395226D01*
X148690256Y-33317205D01*
X148859774Y-33203937D01*
X149003937Y-33059774D01*
X149117205Y-32890256D01*
X149195226Y-32701898D01*
X149235000Y-32501939D01*
X149235000Y-32298061D01*
X149221530Y-32230344D01*
X149300000Y-32238072D01*
X150300000Y-32238072D01*
X150424482Y-32225812D01*
X150544180Y-32189502D01*
X150654494Y-32130537D01*
X150751185Y-32051185D01*
X150830537Y-31954494D01*
X150889502Y-31844180D01*
X150925812Y-31724482D01*
X150938072Y-31600000D01*
X151861928Y-31600000D01*
X151874188Y-31724482D01*
X151910498Y-31844180D01*
X151969463Y-31954494D01*
X152048815Y-32051185D01*
X152145506Y-32130537D01*
X152255820Y-32189502D01*
X152375518Y-32225812D01*
X152500000Y-32238072D01*
X152714250Y-32235000D01*
X152873000Y-32076250D01*
X152873000Y-30977000D01*
X153127000Y-30977000D01*
X153127000Y-32076250D01*
X153285750Y-32235000D01*
X153500000Y-32238072D01*
X153624482Y-32225812D01*
X153744180Y-32189502D01*
X153800000Y-32159665D01*
X153855820Y-32189502D01*
X153975518Y-32225812D01*
X154100000Y-32238072D01*
X154314250Y-32235000D01*
X154473000Y-32076250D01*
X154473000Y-30977000D01*
X153127000Y-30977000D01*
X152873000Y-30977000D01*
X152023750Y-30977000D01*
X151865000Y-31135750D01*
X151861928Y-31600000D01*
X150938072Y-31600000D01*
X150938072Y-30290000D01*
X151863185Y-30290000D01*
X151865000Y-30564250D01*
M02*
