G04 #@! TF.GenerationSoftware,KiCad,Pcbnew,(5.1.6)-1*
G04 #@! TF.CreationDate,2020-08-07T11:21:43-04:00*
G04 #@! TF.ProjectId,daftPunk,64616674-5075-46e6-9b2e-6b696361645f,rev?*
G04 #@! TF.SameCoordinates,Original*
G04 #@! TF.FileFunction,Legend,Top*
G04 #@! TF.FilePolarity,Positive*
%FSLAX46Y46*%
G04 Gerber Fmt 4.6, Leading zero omitted, Abs format (unit mm)*
G04 Created by KiCad (PCBNEW (5.1.6)-1) date 2020-08-07 11:21:43*
%MOMM*%
%LPD*%
G01*
G04 APERTURE LIST*
%ADD10C,0.120000*%
G04 APERTURE END LIST*
D10*
X150950000Y-81850000D02*
X150950000Y-89150000D01*
X149800000Y-81850000D02*
X150950000Y-81850000D01*
X145450000Y-81850000D02*
X145450000Y-89150000D01*
X145450000Y-74392852D02*
X145450000Y-81692852D01*
X149800000Y-74392852D02*
X150950000Y-74392852D01*
X150950000Y-74392852D02*
X150950000Y-81692852D01*
X145450000Y-66935710D02*
X145450000Y-74235710D01*
X149800000Y-66935710D02*
X150950000Y-66935710D01*
X150950000Y-66935710D02*
X150950000Y-74235710D01*
X150950000Y-59478568D02*
X150950000Y-66778568D01*
X149800000Y-59478568D02*
X150950000Y-59478568D01*
X145450000Y-59478568D02*
X145450000Y-66778568D01*
X145450000Y-52021426D02*
X145450000Y-59321426D01*
X149800000Y-52021426D02*
X150950000Y-52021426D01*
X150950000Y-52021426D02*
X150950000Y-59321426D01*
X150950000Y-44564284D02*
X150950000Y-51864284D01*
X149800000Y-44564284D02*
X150950000Y-44564284D01*
X145450000Y-44564284D02*
X145450000Y-51864284D01*
X145450000Y-37107142D02*
X145450000Y-44407142D01*
X149800000Y-37107142D02*
X150950000Y-37107142D01*
X150950000Y-37107142D02*
X150950000Y-44407142D01*
X150950000Y-29650000D02*
X150950000Y-36950000D01*
X149800000Y-29650000D02*
X150950000Y-29650000D01*
X145450000Y-29650000D02*
X145450000Y-36950000D01*
X157350000Y-36950000D02*
X157350000Y-29650000D01*
X153000000Y-36950000D02*
X151850000Y-36950000D01*
X151850000Y-36950000D02*
X151850000Y-29650000D01*
X151850000Y-44407142D02*
X151850000Y-37107142D01*
X153000000Y-44407142D02*
X151850000Y-44407142D01*
X157350000Y-44407142D02*
X157350000Y-37107142D01*
X157350000Y-51864284D02*
X157350000Y-44564284D01*
X153000000Y-51864284D02*
X151850000Y-51864284D01*
X151850000Y-51864284D02*
X151850000Y-44564284D01*
X151850000Y-59321426D02*
X151850000Y-52021426D01*
X153000000Y-59321426D02*
X151850000Y-59321426D01*
X157350000Y-59321426D02*
X157350000Y-52021426D01*
X157350000Y-66778568D02*
X157350000Y-59478568D01*
X153000000Y-66778568D02*
X151850000Y-66778568D01*
X151850000Y-66778568D02*
X151850000Y-59478568D01*
X151850000Y-74235710D02*
X151850000Y-66935710D01*
X153000000Y-74235710D02*
X151850000Y-74235710D01*
X157350000Y-74235710D02*
X157350000Y-66935710D01*
X157350000Y-81692852D02*
X157350000Y-74392852D01*
X153000000Y-81692852D02*
X151850000Y-81692852D01*
X151850000Y-81692852D02*
X151850000Y-74392852D01*
X151850000Y-89150000D02*
X151850000Y-81850000D01*
X153000000Y-89150000D02*
X151850000Y-89150000D01*
X157350000Y-89150000D02*
X157350000Y-81850000D01*
M02*
